$MeshFormat
4.1 0 8
$EndMeshFormat
$Nodes
1 557 1 557
3 1 0 557
1
2
3
4
5
6
7
8
9
10
11
12
13
14
15
16
17
18
19
20
21
22
23
24
25
26
27
28
29
30
31
32
33
34
35
36
37
38
39
40
41
42
43
44
45
46
47
48
49
50
51
52
53
54
55
56
57
58
59
60
61
62
63
64
65
66
67
68
69
70
71
72
73
74
75
76
77
78
79
80
81
82
83
84
85
86
87
88
89
90
91
92
93
94
95
96
97
98
99
100
101
102
103
104
105
106
107
108
109
110
111
112
113
114
115
116
117
118
119
120
121
122
123
124
125
126
127
128
129
130
131
132
133
134
135
136
137
138
139
140
141
142
143
144
145
146
147
148
149
150
151
152
153
154
155
156
157
158
159
160
161
162
163
164
165
166
167
168
169
170
171
172
173
174
175
176
177
178
179
180
181
182
183
184
185
186
187
188
189
190
191
192
193
194
195
196
197
198
199
200
201
202
203
204
205
206
207
208
209
210
211
212
213
214
215
216
217
218
219
220
221
222
223
224
225
226
227
228
229
230
231
232
233
234
235
236
237
238
239
240
241
242
243
244
245
246
247
248
249
250
251
252
253
254
255
256
257
258
259
260
261
262
263
264
265
266
267
268
269
270
271
272
273
274
275
276
277
278
279
280
281
282
283
284
285
286
287
288
289
290
291
292
293
294
295
296
297
298
299
300
301
302
303
304
305
306
307
308
309
310
311
312
313
314
315
316
317
318
319
320
321
322
323
324
325
326
327
328
329
330
331
332
333
334
335
336
337
338
339
340
341
342
343
344
345
346
347
348
349
350
351
352
353
354
355
356
357
358
359
360
361
362
363
364
365
366
367
368
369
370
371
372
373
374
375
376
377
378
379
380
381
382
383
384
385
386
387
388
389
390
391
392
393
394
395
396
397
398
399
400
401
402
403
404
405
406
407
408
409
410
411
412
413
414
415
416
417
418
419
420
421
422
423
424
425
426
427
428
429
430
431
432
433
434
435
436
437
438
439
440
441
442
443
444
445
446
447
448
449
450
451
452
453
454
455
456
457
458
459
460
461
462
463
464
465
466
467
468
469
470
471
472
473
474
475
476
477
478
479
480
481
482
483
484
485
486
487
488
489
490
491
492
493
494
495
496
497
498
499
500
501
502
503
504
505
506
507
508
509
510
511
512
513
514
515
516
517
518
519
520
521
522
523
524
525
526
527
528
529
530
531
532
533
534
535
536
537
538
539
540
541
542
543
544
545
546
547
548
549
550
551
552
553
554
555
556
557
0.07538769597 0 0.05874395664
0.07538769597 0 0.05874395664
0 0 0.1
0.08 0 0
-0.08 3.265724798e-18 0
0.07878462024 0.01389185421 0
0.07517540966 0.02736161147 0
0.0692820323 0.04 0
0.06128355545 0.05142300877 0
0.05142300877 0.06128355545 0
0.04 0.0692820323 0
0.02736161147 0.07517540966 0
0.01389185421 0.07878462024 0
-1.727370967e-16 0.08 0
-0.01389185421 0.07878462024 0
-0.02736161147 0.07517540966 0
-0.04 0.0692820323 0
-0.05142300877 0.06128355545 0
-0.06128355545 0.05142300877 0
-0.0692820323 0.04 0
-0.07517540966 0.02736161147 0
-0.07878462024 0.01389185421 0
0.01133613062 0 0.09345384955
0.02238552372 0 0.08629994067
0.03304456397 0 0.07845729769
0.04317482475 0 0.06983884878
0.05259342054 0 0.06035948435
0.06106619491 0 0.04995275303
0.06831227338 0 0.0385989772
0.07403322654 0 0.02636074429
0.07797442613 0 0.0134072779
-0.01133613062 1.388275608e-18 0.09345384955
-0.02238552372 2.741435997e-18 0.08629994067
-0.03304456397 4.046791949e-18 0.07845729769
-0.04317482475 5.287391093e-18 0.06983884878
-0.05259342054 6.440836411e-18 0.06035948435
-0.06106619491 7.478452013e-18 0.04995275303
-0.06831227338 8.365840694e-18 0.0385989772
-0.07403322654 9.066455392e-18 0.02636074429
-0.07797442613 9.549113137e-18 0.0134072779
0.07878462024 -0.01389185421 0
0.07517540966 -0.02736161147 0
0.0692820323 -0.04 0
0.06128355545 -0.05142300877 0
0.05142300877 -0.06128355545 0
0.04 -0.0692820323 0
0.02736161147 -0.07517540966 0
0.01389185421 -0.07878462024 0
-1.727370967e-16 -0.08 0
-0.01389185421 -0.07878462024 0
-0.02736161147 -0.07517540966 0
-0.04 -0.0692820323 0
-0.05142300877 -0.06128355545 0
-0.06128355545 -0.05142300877 0
-0.0692820323 -0.04 0
-0.07517540966 -0.02736161147 0
-0.07878462024 -0.01389185421 0
-8.724866405e-05 0.01399252769 0.09181077336
0.0378538828 0.01168204412 0.0730223532
-0.03769497445 0.01099812231 0.07332461451
-0.006822784453 0.07798478315 0.01199371814
-0.04464295769 0.06426042305 0.01216882377
0.04458829329 0.06434170643 0.01199997613
0.05739660601 0.01097209624 0.05343511294
-0.05725456951 0.0122158925 0.05329803335
0.07098405108 0.010947966 0.03162453959
-0.06989696652 0.01225561824 0.03346393262
0.0638749519 0.04523367732 0.01205695551
-0.06412541109 0.04490109624 0.01199371814
0.01997150604 0.07551863312 0.01277654049
0.07582110126 0.0205262124 0.01067060936
-0.07582767531 0.02044288555 0.01074941022
-0.0169906707 0.01214348032 0.08732429242
-0.00666498681 0.02261862656 0.08547190052
0.007763914144 0.02156235113 0.0859326351
0.0276972209 0.01168865175 0.08076098222
0.02991220317 0.02499804192 0.07356953484
0.001525700175 0.03245542006 0.07889184412
-0.01274129669 0.03251277392 0.07695890833
0.04140807986 0.02302828415 0.06581699158
0.03262577541 0.03453388751 0.06569014958
-0.004541605829 0.0423753627 0.07034930369
-0.01870987326 0.04195249208 0.06723357312
-0.01039738145 0.05135094421 0.06058051644
-0.02440282983 0.04992122741 0.05695966347
0.04408311567 0.0340758264 0.05677996716
0.03446031969 0.04494085378 0.05568093398
-0.01590890339 0.05920931737 0.04961692916
-0.001544033075 0.05937394862 0.05219701628
0.04568006196 0.04418839307 0.04638790344
0.03531460451 0.05432061132 0.0445029164
-0.02969023717 0.05698869668 0.04532460635
-0.03759819406 0.04647037129 0.05169456425
-0.04246221221 0.05288654324 0.03947302054
-0.04966167682 0.04133321677 0.04478093234
0.02217684389 0.04444180754 0.06349366515
-0.02093875772 0.06576171421 0.03730659237
0.02354441205 0.05412109001 0.05268350225
0.02391153343 0.06261533021 0.04085870845
-0.04408330879 0.03429932264 0.05661671772
0.05458730147 0.03268904347 0.04628140053
0.0459668416 0.05307287919 0.03499513419
0.01569585097 0.03024998932 0.07763533179
-0.05395561845 0.04674960683 0.03256067248
-0.05846382189 0.03643030327 0.03754808257
-0.02634876917 0.03043062914 0.07246587791
0.003931497942 0.05261886007 0.06016890637
-0.04717593899 0.05782991586 0.02476469538
-0.03130875749 0.03899664551 0.06313708768
0.01029769031 0.04229344071 0.06951157201
0.05180795067 0.02223407851 0.05598958015
-0.05672931841 0.02758714752 0.04708943053
-0.04883625626 0.02232034396 0.05912664708
-0.06291164804 0.01766795867 0.04362831609
-0.007819396716 0.06633119623 0.04125803919
-0.01153391373 0.07307363836 0.02650302413
0.002565844477 0.07145793453 0.03231918332
-0.02571800909 0.07027524243 0.02420587896
-0.03384112443 0.06253368407 0.03317105151
0.05533971996 0.04265324762 0.03567051664
0.06307024897 0.03071678448 0.03511290014
0.06082383144 0.02130184314 0.04503728783
0.05551621043 0.05023059379 0.02410973904
0.01584685998 0.01121398721 0.08831079716
0.0119269899 0.06041244923 0.04924217635
-0.0290827481 0.01072713043 0.08004829138
0.03498453582 0.06177520046 0.03340069501
0.02504115883 0.06991310071 0.02575973976
-0.0200689907 0.07554648397 0.01253799359
0.03227266634 0.07119120373 0.01254755294
0.006625296216 0.07806195014 0.01170598162
-0.07099417954 0.03305899607 0.01184422807
-0.07138051735 0.02415530704 0.02270133129
0.05461863578 0.05606510593 0.01204492904
0.07088944848 0.03331129931 0.01178631047
-0.05509461859 0.05568104168 0.01176049131
0.07074859815 0.02436049065 0.02422882223
0.0481681072 0.0115911275 0.06362300649
-0.02078716087 0.02086617687 0.0812204139
-0.03739900487 0.02852475252 0.06615874999
-0.03299999798 0.07101735466 0.01186280912
-0.06380021986 0.03866227854 0.02484962995
0.06413207587 0.03877015675 0.02390503345
-0.02999422436 0.02236402778 0.07490284183
0.0116266758 0.07415935608 0.02354951736
0.07560053346 0.01098752138 0.01943938987
-0.07552154769 0.01122869464 0.01958344411
0.04487598956 0.06009616185 0.02372807135
-0.04780963823 0.01063964419 0.06420414892
0.02212213333 0.02097408642 0.08044068906
0.01333839227 0.06838920129 0.03604424683
-0.03722403697 0.06599893337 0.02144387233
0.06504911998 0.0101927802 0.04282799128
0.0005714947716 0.0758114504 0.02131655143
0.0354391406 0.06668684873 0.02221902035
-0.06531333119 0.02567412431 0.03506167116
0.003749858208 0.06593690263 0.04250072065
0.02211018342 0.03638831244 0.07038493616
-0.05735413878 0.04943296459 0.02161454238
0.01449597722 0.05097973707 0.05990739521
-0.07813003545 0.009805816742 0.009651816551
0.07813128992 0.00972751269 0.009697955511
-0.06429782357 0.007439066259 0.04460279395
-0.04184658047 0.01892089136 0.06724341135
0.06676334424 0.02043046316 0.03576895203
-0.0478137982 0.0478137982 0
0.04766289519 -0.04790800745 0
-0.0478137982 -0.0478137982 0
0.0477497593 0.04778583457 0
-0.06725989427 -0.005121984157 0
-0.007121444333 0.06765119938 0
-0.00546407845 -0.06745941944 0
0.0684058802 0.006340134743 0
0.06424189239 -0.01609527951 0
0.0181066517 0.06484290759 0
0.01693690612 -0.06513077507 0
-0.02857699123 -0.06128355545 0
-0.06080356023 -0.02945767686 0
-0.06222944492 0.0293681581 0
-0.02883751813 0.06249871086 0
0.06228168804 0.02786403844 0
0.0569023476 -0.03895667105 0
0.04429367122 -0.03416289766 0
0.0339043181 -0.04376773858 0
0.03032919003 -0.02999448318 0
0.01989329433 -0.03977446251 0
0.01643283265 -0.02588917363 0
0.02684341089 -0.01598049655 0
0.01297809007 -0.01194606054 0
0.002601085473 -0.02185646853 0
-0.0007736968612 -0.007920064685 0
0.009554045042 0.001959799115 0
-0.004151265134 0.005962197134 0
-0.0144837745 -0.003909400096 0
0.006150609493 0.01584840095 0
-0.01786168542 0.01000434234 0
0.01989851203 0.01185099109 0
0.01648204041 0.02578692813 0
0.002705235535 0.02977030846 0
-0.02823215118 0.0001173455143 0
-0.02483314931 -0.01384012446 0
-0.03163045038 0.01407786605 0
0.03029510021 0.02177771585 0
0.03371100446 0.007810754283 0
-0.0212485201 0.02396877685 0
-0.038655316 -0.009808212439 0
-0.03521324651 -0.02381827554 0
-0.02140111699 -0.02782280521 0
0.02653452585 0.03569564569 0
-0.03477664174 0.02782605693 0
-0.02448488852 0.03714325083 0
0.04320916621 0.01750237987 0
0.04653962644 0.00357388608 0
-0.04472642278 0.01742218034 0
-0.03176076657 -0.03786838808 0
-0.01726445478 -0.04162366543 0
-0.0500320931 -0.02007968951 0
0.04059880796 -0.02006999666 0
-0.05347848913 -0.006790816964 0
0.005947769478 -0.03584808215 0
0.009121829748 -0.05111145975 0
-0.01109141445 -0.01784420215 0
0.02335573585 -0.002062490814 0
-0.007555824553 0.0198911405 0
0.0129707494 0.03972663238 0
-0.0008183781221 0.04320462338 0
0.02204956975 0.05004079647 0
0.04152684484 0.03354270048 0
-0.0420190105 0.004005404011 0
0.03692784322 -0.006110176465 0
-0.007657834538 -0.03171634994 0
-0.01093321061 0.03353191737 0
-0.04712489748 -0.03317297136 0
0.009371767822 0.05357735538 0
-0.05633173959 0.007919347144 0
-0.004646286058 -0.04540234613 0
-0.01434554822 -0.05579320421 0
0.0500241141 -0.0107174258 0
-0.01480816932 0.04585579624 0
0.02422265792 -0.05326268735 0
0.05360193614 -0.02457482013 0
-0.04809249758 0.0313494827 0
0.02983577651 0.06114372244 0
0.03788397272 -0.05647845082 0
0.05665215252 0.01413239684 0
-0.06995602736 0.007044373794 0
-0.03724333774 0.04147391642 0
-0.03494731271 -0.05081126614 0
0.03489290905 0.04689573135 0
-0.01792801671 -0.0676992418 0
0.005022313751 -0.06216873586 0
0.05543101558 0.03788898708 0
0.004875049781 0.06667729617 0
-0.01923058832 0.0681717477 0
-0.05726156873 -0.04037349104 0
0.06991409699 -0.0049626362 0
-0.05774026569 0.03999088955 0
-0.03928466159 0.05580389464 0
-0.06425567777 -0.01711727219 0
0.06825995013 0.01791800714 0
-0.00499853072 0.05520769441 0
-0.0279556477 0.04961595982 0
-0.06646236147 0.01742509123 0
0.06384072362 -0.02939767643 0
0.02900007748 -0.06367639698 0
0.04068910211 0.05703533392 0
0.05843958152 -0.001197932321 0
-0.0242002829 -0.05088531847 0
0.0509570969 0.02652437533 0
-0.05592527715 0.01984869717 0
-0.04121177055 -0.05885650797 0
-0.002854414678 -0.05635484477 0
-0.01715864975 0.0581668514 0
0.006243678211 -0.0716893191 0
-8.724866405e-05 -0.01399252769 0.09181077336
0.0378538828 -0.01168204412 0.0730223532
-0.03799494708 -0.01121572389 0.07302211339
0.00704702331 -0.07797186663 0.01196034925
-0.04447966981 -0.06433475262 0.01231883104
0.04510640601 -0.06352572417 0.01368614716
-0.05625917063 -0.01157385076 0.05469152715
0.05595850112 -0.01160956629 0.05504680539
0.07071429743 -0.01106178842 0.03216754643
-0.07078546778 -0.01325575276 0.03119855114
0.06330329946 -0.04633441956 0.01118533015
-0.06344885171 -0.04587981263 0.01191636299
-0.01839637103 -0.07562578241 0.01403063811
0.07596810445 -0.01959876259 0.01115105052
-0.07610710388 -0.0194294797 0.01068265788
-0.0169906707 -0.01214348032 0.08732429242
-0.00666498681 -0.02261862656 0.08547190052
0.007763914144 -0.02156235113 0.0859326351
0.0276972209 -0.01168865175 0.08076098222
0.02980659982 -0.02515886945 0.0735501155
0.001525700175 -0.03245542006 0.07889184412
-0.01274129669 -0.03251277392 0.07695890833
-0.00387999875 -0.0426895132 0.07012305434
-0.01823680152 -0.04206452166 0.06731850043
-0.009828157988 -0.05167472573 0.0603510567
0.004626115444 -0.05105366543 0.06180895834
-0.02388360267 -0.0504799127 0.05662881922
-0.001264453379 -0.05991671838 0.05148955803
0.01316774654 -0.05792414067 0.05218658789
-0.03171680971 -0.03949346695 0.06246002392
-0.03719158966 -0.04738726013 0.05107646449
-0.02881586346 -0.05759953776 0.04509996733
-0.04161271654 -0.05383038325 0.03908979363
-0.04902097934 -0.04239584339 0.04447143493
0.00717409578 -0.06614298217 0.04169422365
0.02150418535 -0.06317155757 0.04135781102
0.02716881052 -0.05377735319 0.05106107648
0.03509267114 -0.05802469857 0.03949471486
0.04013869474 -0.04751208525 0.04836849963
0.04747557374 -0.05092895903 0.03614569739
0.05164533741 -0.03941928766 0.04422214438
-0.007398271135 -0.06684000081 0.0404771168
0.04437709284 -0.03518932343 0.05567641521
-0.03315382997 -0.06331563789 0.03239098679
0.02891740427 -0.06639770345 0.03028327823
-0.05313751973 -0.04777564259 0.03242011084
-0.05952780029 -0.03595142601 0.03630668622
0.0582143033 -0.04178146768 0.031990112
0.06041225931 -0.03205850488 0.0384555189
0.06711026049 -0.03208024424 0.02543660414
0.001078501114 -0.07236843055 0.03038615039
-0.05462227636 -0.0294606119 0.04856305936
-0.01346338144 -0.07207075261 0.02816392558
0.05436561761 -0.05253451891 0.02197048958
0.01524135756 -0.03014487994 0.07787539904
0.04140807986 -0.02302828415 0.06581699158
0.03489260689 -0.03374530372 0.06465117841
-0.0636710715 -0.02346134564 0.03941545569
-0.06776277999 -0.02854196159 0.02764338293
0.057849366 -0.02523299784 0.04704301567
0.01044952971 -0.04192349241 0.06980998083
0.01888543226 -0.04834263598 0.06111943081
-0.04405260979 -0.03531540448 0.05588890626
-0.03795644109 -0.02816343663 0.06593296883
-0.01528680686 -0.05966847636 0.04921837596
0.03174235996 -0.04406510813 0.05842800567
0.01526147607 -0.07024026067 0.03150176295
0.02169065053 -0.07313454583 0.01981053398
0.04192670589 -0.06034644432 0.02775987802
-0.04664074689 -0.05837550495 0.02452144545
-0.02602873895 -0.03122786332 0.07211331855
0.01584685998 -0.01121398721 0.08831079716
-0.04775726946 -0.01120891842 0.06412638932
-0.02831548835 -0.01022709071 0.08072825812
0.06380668518 -0.01110943154 0.04454068722
-0.06419262719 -0.01166977146 0.04378853582
0.03242070088 -0.07164024239 0.01023190458
-0.006224352851 -0.07849020686 0.009686474192
-0.03331129931 -0.07088944848 0.01178631047
-0.05474357597 -0.05602840527 0.01175291567
-0.07073180083 -0.03244496763 0.0140861911
0.07055878378 -0.03303979087 0.01368435019
0.0473315413 -0.01120808069 0.06455012762
-0.02145005677 -0.02168496447 0.08042768378
-0.04943675715 -0.02224396043 0.0585393211
-0.02079095167 -0.06576801505 0.03737894454
-0.02613478981 -0.0702303824 0.02391850656
-0.06278097269 -0.04087658326 0.02397480514
0.07556104894 -0.01060652918 0.0197492924
-0.07562219459 -0.01064124621 0.01953175134
0.05577995038 -0.05560479185 0.009553157405
0.0214690798 -0.02053517646 0.08102823201
0.02294166721 -0.03844500172 0.06834916124
0.07170790094 -0.02089254683 0.02460532159
-0.03269272929 -0.02175267866 0.07332325249
-0.03702864241 -0.06623832465 0.02109118643
0.05082111886 -0.0210978186 0.05759497192
0.009580308147 -0.07471555162 0.02278865523
0.02048798758 -0.07627660926 0.008301328531
0.06628327096 -0.02106983686 0.0362880724
-0.07813003545 -0.009805816742 0.009651816551
0.0781872417 -0.009555286079 0.00950945018
-0.05646129651 -0.05041795952 0.02168085901
0.03535095499 -0.06729607894 0.02067816487
0.06324206229 -0.04160593756 0.02166536527
-0.05866095174 -0.0200637822 0.04865288861
-0.00447998907 -0.07591168503 0.02058980986
-0.04254688193 -0.01823181048 0.06689095353
-0.0729860039 -0.0205985567 0.02124347256
0.000854799687 0.04880053193 0.02031235248
-0.02312621959 0.05887628168 0.01734400441
0.02479550926 0.006536571113 0.03070988581
-0.02845841903 0.01983868549 0.02081910708
0.0004408178438 0.01466466145 0.02135845073
-0.004927827008 -0.01923709938 0.01314166136
0.01356654207 -0.01656824438 0.0466765125
0.01312029196 0.02384329123 0.04852638479
-0.02598445207 -0.01462624527 0.02734153083
0.02833593152 -0.0132526987 0.03220388242
0.01384525552 0.02870046975 0.06258337744
0.01122079339 0.05400874811 0.03212671926
-0.007895808684 -0.01082936242 0.07669527162
-0.007931192019 0.01206020506 0.07685673991
-0.03617790301 0.02510388528 0.04787922554
-0.0375266068 0.04311790303 0.0328756692
0.02919159522 0.02130781409 0.04940267217
0.02556992704 0.02268511801 0.02878278746
0.0424432317 0.009426129359 0.05164367434
0.04403918384 -0.008759652708 0.05087262613
0.04244289356 -0.001064959015 0.03099299834
0.04251140625 0.02443235251 0.03898793592
0.03812767939 0.02006079047 0.01665505649
0.05600995829 0.009748963189 0.03392427311
0.05443184221 0.02687418807 0.0152101247
-0.02717136111 0.01178561553 0.06495494836
-0.008851464841 0.02662588896 0.06649059255
-0.02046227199 0.02950945279 0.05322732
0.02766202447 0.03976585958 0.04779448827
0.04125953866 0.04057071837 0.03196138319
-0.009231199095 0.04340219436 0.05184691068
-0.007088289908 0.05631142109 0.03564065546
0.007705565659 -0.04091869485 0.02787734055
-0.02576474342 -0.01015843112 0.06380678737
-0.04005750235 -0.004834423275 0.05131938897
0.01344709723 0.01304375926 0.07351513083
-0.05463985216 0.01111526412 0.03504006676
-0.04353235449 0.009853694233 0.05130817794
-0.04027907772 0.04573862877 0.01477763203
-0.05798932256 -0.008911799955 0.01476448772
0.06175615614 0.008590782759 0.01307453071
0.0366232251 -0.001318628999 0.01374367322
0.009070071373 0.0562208668 0.01334338738
0.009875452129 0.03833049012 0.0306100388
0.009023630397 0.02197205922 0.02987585035
-0.04083448713 0.02541260473 0.03038602704
-0.05647038024 -0.02640860183 0.01639362694
-0.04398735928 -0.04408636259 0.01393743808
-0.02585422693 -0.05327883571 0.01625960075
0.04520298535 0.03969640672 0.01485299973
-0.01633769282 -0.03675493406 0.01469746591
-0.04212819375 -0.03834303876 0.03258276259
0.01416311817 -0.05428751817 0.01738326743
-0.006949075393 0.06042963857 0.01540345782
0.01040355114 -0.02049953674 0.01063967908
0.02638672954 -0.02411195271 0.01673524601
0.04265558191 -0.03936492028 0.01997883596
0.04123252733 -0.01959303315 0.01317146679
0.05762462701 -0.02456339553 0.01878908301
0.04535246724 -0.02408488493 0.03655648233
0.004318132435 -0.005240956712 0.01376643673
0.0195642614 -0.007007978962 0.01548748724
0.0199470753 -0.03588848482 0.0140308554
0.008437769629 -0.02273624747 0.02658320994
0.02975282034 -0.05598774217 0.01350893951
0.02697553256 -0.03571496982 0.03187072705
-0.007317391944 -0.006097349472 0.009965664697
0.009930012242 0.01021158286 0.01301266711
0.009411569525 -0.008347273838 0.03186816597
-0.006932635312 -0.005748616954 0.02838966766
-0.0005833118304 -0.03463249429 0.01519014747
0.00690549558 -0.03842076433 0.04761910524
-0.01937430887 -0.008324707611 0.01415608978
-0.008242107189 0.008324497523 0.01424021572
0.02486236748 0.00737287737 0.01079749576
-0.0189954825 -0.02227676705 0.01319900909
-0.03595217564 -0.005377601716 0.01639728156
-0.03555560279 -0.02383051867 0.01342838083
-0.04228691289 -0.01975247133 0.03288252737
0.01023984192 0.02488921392 0.01056851123
0.00714398283 0.003931453945 0.02482145079
-0.01169311047 -0.02202693917 0.02726818026
-0.02415531541 -0.03503855186 0.03034967083
-0.02471473149 -0.05201607946 0.03385214716
-0.004309526946 -0.0576812671 0.01462165018
0.01239832811 -0.0536360096 0.03572374795
-0.003941519704 0.02605654122 0.01433449938
-0.03478284418 0.02649470494 0.01089153535
-0.02327987014 0.03721260417 0.01514963916
-0.02630664847 0.007261707994 0.01173939762
-0.01798212781 0.01981666511 0.01264951681
-0.02045302816 0.02686350977 0.03193550607
0.02198565147 0.02037981099 0.01347177552
-0.003453260224 0.008555914398 0.02928536904
0.006099937417 0.03829422362 0.01597711939
0.0593749826 -0.007923672018 0.02003442199
-0.06012551475 0.008627405139 0.01350202151
-0.05431189551 -0.007255463589 0.0359272815
-0.04210298861 0.01036847493 0.01792427748
-0.05379255519 0.0310978888 0.01750214178
-0.02284413397 0.007798742168 0.0280819006
-0.03702425977 0.002623167816 0.03580283889
0.02035601145 0.03693912518 0.01580733165
-0.006750162744 0.04280199985 0.01156206236
-0.00822318209 0.01959299981 0.02773996984
0.03102233063 0.05462170704 0.01393001143
0.02567180238 0.03874912914 0.03184417743
-0.006375141332 -0.03412108194 0.03272141984
-0.02226266657 0.0465121153 0.03866613622
-0.006867344583 0.04015678648 0.03056792711
-0.007127422301 -0.05293506976 0.03307269767
0.02616480846 -0.03795523747 0.04973665983
0.02941740016 -0.05152394049 0.03356956339
-0.008789664675 -0.03621973063 0.06085089025
-0.04008491714 -0.02255323433 0.05018155245
-0.009896698764 -0.04213225236 0.04683355844
0.01349525547 -0.02642874727 0.06312560199
0.009286620486 -0.01018618661 0.07648175804
-0.003986996103 -0.0209857291 0.04160856062
0.03071719063 -0.02152831426 0.05433417853
0.02569507039 0.01098115206 0.06323681013
-0.02339172556 -0.02795962431 0.04849360149
-0.02345162954 0.007783808739 0.0491731465
-0.009375451421 0.01067152466 0.04097714464
-0.001264366961 0.00783993202 0.06095775265
-0.00270146738 0.02570791639 0.04621772644
0.02019368094 -0.007877268563 0.0662622556
0.009126409462 0.005143204904 0.04405570777
0.008077227495 0.04136935651 0.0493231455
0.002345764753 -0.008708764561 0.05995841773
-0.007439662355 -0.02202558312 0.05939935643
-0.005810897785 -0.005675296143 0.04778289446
0.02954022248 -0.002439246793 0.05328976524
-0.02187726866 -0.009391661799 0.04237140685
-0.003504923108 -0.07549003865 0.004449106508
0.06958765185 -0.004476357943 0.007704471411
0.03779101332 -0.06200799332 0.00656643771
-0.07100422595 0.01406410128 0.007521093372
0.0662003224 -0.02638299025 0.008414488455
0.06756785399 0.0199288371 0.009176906189
0.03232968466 0.0652120111 0.006599377636
-0.01829281412 0.06733439955 0.007006384719
-0.06126646166 0.04364003786 0.004319102339
0.001342551288 -0.005103566755 0.08736878778
-0.04438070135 -0.06040623278 0.004291811836
0.006484848931 0.07071623264 0.009497625891
0.04866939891 0.05077040947 0.009283982606
-0.07276655 -0.008492903113 0.006015800899
-0.06412362707 -0.03365957791 0.008391913889
-0.03922474891 0.06025822955 0.008662717012
0.01759186612 -0.07307606834 0.00441947569
-0.07204842471 0.004181869951 0.007151842668
0.006729035337 -0.07463433604 0.003876293646
-0.05132079675 0.05356333688 0.00619335605
0.003454395445 0.004530807755 0.08225720798
0.02016781962 0.06682308494 0.01103907659
0.04191179366 0.0603617066 0.006254521451
0.02714218957 -0.0678484764 0.006540186875
-0.0319151884 -0.06801039026 0.005351880503
-0.06300778705 0.03047843213 0.007479178091
0.05371381442 -0.04516947742 0.008481061719
-0.05574402893 -0.04184395101 0.00942852277
-0.06975510783 -0.02212249778 0.008186039493
-0.03013583649 0.06533709204 0.007962210605
0.06123302648 0.03625719603 0.007896616006
0.07223326116 0.007316874262 0.005670165735
-0.01142837338 -0.07116446693 0.006785921992
0.06914674144 -0.01522420573 0.01032229993
-0.05245499441 -0.04993154655 0.007691448436
-0.006617846247 0.0706421471 0.009497786796
-0.06605862348 0.02147658983 0.01125319435
-0.02136572699 -0.07145406161 0.004116031715
0.05735569418 -0.03429634301 0.009711805097
0.04348708038 -0.05143699286 0.01040688477
$EndNodes
$Elements
1 2011 1 2011
3 1 4 2011
820 399 92 492 119
821 84 414 88 89
822 451 458 197 476
823 492 385 119 97
824 220 436 221 186
825 462 517 505 392
826 26 59 402 504
827 507 509 511 428
828 139 410 74 397
829 393 516 386 390
830 5 40 531 535
831 376 551 519 41
832 92 492 119 97
833 172 518 50 49
834 506 485 398 484
835 529 154 131 61
836 320 431 362 435
837 233 461 217 430
838 433 408 252 548
839 165 66 153 407
840 106 139 144 409
841 95 399 104 94
842 108 399 119 94
843 538 58 32 3
844 104 399 108 94
845 365 557 280 328
846 172 278 381 518
847 412 91 413 490
848 155 128 130 489
849 539 128 489 130
850 412 405 490 413
851 249 209 433 489
852 78 103 419 394
853 405 90 413 412
854 489 127 490 413
855 464 477 511 428
856 4 256 41 519
857 419 103 77 394
858 504 76 419 25
859 426 234 225 226
860 414 88 89 415
861 498 326 380 462
862 16 180 525 547
863 144 60 409 126
864 401 400 405 490
865 472 475 470 493
866 385 547 152 141
867 390 495 449 503
868 148 489 413 127
869 459 231 389 434
870 85 411 93 492
871 66 29 153 407
872 551 368 479 442
873 141 533 547 152
874 538 527 3 32
875 312 496 314 343
876 515 507 508 511
877 411 509 475 493
878 101 121 413 120
879 520 45 46 244
880 67 114 163 420
881 396 527 538 32
882 332 350 380 481
883 535 22 161 521
884 261 239 437 273
885 471 202 214 210
886 413 405 490 406
887 483 166 422 242
888 400 81 86 412
889 440 322 328 379
890 442 443 441 440
891 233 461 430 431
892 420 133 483 480
893 529 437 253 426
894 423 364 284 39
895 100 95 398 112
896 102 148 413 127
897 30 146 31 424
898 421 112 398 420
899 35 421 149 409
900 421 36 35 149
901 463 470 478 199
902 25 419 24 76
903 376 551 41 288
904 390 502 447 455
905 245 267 424 213
906 407 66 30 424
907 245 267 173 424
908 462 423 430 481
909 16 525 180 254
910 44 544 285 43
911 385 487 493 472
912 436 240 448 176
913 512 96 394 412
914 435 461 430 462
915 66 146 30 424
916 438 191 444 189
917 546 178 430 532
918 395 127 489 128
919 544 556 285 43
920 511 508 509 507
921 523 162 6 71
922 265 176 448 240
923 379 556 285 544
924 66 146 424 137
925 425 404 441 479
926 448 244 557 520
927 424 549 519 173
928 457 444 464 453
929 467 360 306 318
930 483 429 482 471
931 11 63 130 524
932 31 479 30 424
933 194 450 191 193
934 519 424 173 267
935 400 111 80 402
936 505 497 301 499
937 480 423 481 39
938 430 321 462 332
939 215 461 233 431
940 452 390 386 511
941 423 531 364 40
942 231 459 208 434
943 450 191 389 222
944 328 544 440 379
945 483 543 242 270
946 215 233 461 207
947 450 194 191 222
948 443 442 441 479
949 67 38 39 420
950 511 400 428 391
951 522 174 42 264
952 556 441 442 241
953 441 241 183 218
954 444 389 453 450
955 432 434 466 494
956 442 322 324 323
957 284 430 481 332
958 438 188 445 439
959 457 474 196 473
960 473 229 460 482
961 418 409 421 35
962 205 474 224 232
963 525 180 254 273
964 457 464 444 451
965 287 177 555 542
966 508 538 501 419
967 377 344 431 320
968 474 488 475 484
969 128 155 127 489
970 38 284 481 350
971 418 498 481 462
972 184 446 186 448
973 410 509 508 411
974 410 106 411 409
975 414 84 107 89
976 499 300 497 299
977 315 322 440 443
978 187 446 186 185
979 432 467 361 327
980 163 114 65 420
981 420 480 481 39
982 194 200 456 473
983 16 180 547 17
984 321 430 462 435
985 460 392 485 462
986 172 536 274 251
987 412 512 395 490
988 308 498 305 435
989 460 392 484 485
990 280 557 45 520
991 81 394 96 412
992 507 475 411 509
993 249 169 433 228
994 29 66 30 407
995 480 423 219 229
996 191 192 193 444
997 435 461 462 466
998 48 536 274 49
999 450 191 193 444
1000 239 232 472 211
1001 472 247 471 422
1002 472 247 422 262
1003 247 471 422 242
1004 462 517 392 485
1005 295 296 396 514
1006 392 459 461 456
1007 411 85 93 109
1008 279 432 370 177
1009 275 396 291 290
1010 502 491 499 505
1011 430 423 284 481
1012 400 111 402 405
1013 410 411 508 409
1014 459 389 456 465
1015 334 403 349 443
1016 326 321 462 435
1017 38 37 350 481
1018 140 398 409 164
1019 321 326 462 332
1020 482 423 480 229
1021 435 462 505 466
1022 535 423 531 170
1023 485 429 398 484
1024 300 297 497 299
1025 20 69 543 526
1026 418 409 35 417
1027 547 533 17 180
1028 253 261 426 437
1029 390 495 503 500
1030 421 112 420 65
1031 421 113 65 149
1032 36 421 418 37
1033 223 445 192 189
1034 315 495 443 449
1035 31 479 424 519
1036 270 554 483 543
1037 298 301 497 299
1038 474 457 224 470
1039 471 202 473 482
1040 191 389 438 444
1041 433 209 486 489
1042 470 463 478 428
1043 192 451 193 444
1044 474 202 473 471
1045 530 249 433 489
1046 505 301 497 304
1047 302 455 303 469
1048 420 133 480 67
1049 498 326 435 308
1050 333 355 430 362
1051 410 509 411 414
1052 198 463 197 476
1053 460 201 200 456
1054 474 205 471 472
1055 475 399 398 492
1056 60 34 409 126
1057 220 436 186 446
1058 73 33 397 32
1059 330 294 276 503
1060 29 407 28 153
1061 408 245 269 181
1062 405 90 101 413
1063 389 459 456 222
1064 525 385 273 437
1065 455 495 303 469
1066 459 231 208 222
1067 460 473 482 484
1068 305 467 306 307
1069 472 262 385 239
1070 236 434 468 454
1071 433 228 252 408
1072 330 503 317 331
1073 330 371 317 503
1074 441 183 440 185
1075 235 480 219 229
1076 527 538 501 396
1077 422 399 104 483
1078 482 387 484 473
1079 482 484 429 485
1080 503 495 317 331
1081 429 475 398 484
1082 67 114 420 156
1083 506 485 484 517
1084 327 467 361 360
1085 557 343 440 448
1086 538 396 32 397
1087 315 440 314 449
1088 312 496 313 314
1089 136 18 537 19
1090 23 527 3 538
1091 399 95 93 94
1092 34 348 277 417
1093 301 467 466 499
1094 477 488 507 428
1095 313 315 314 449
1096 432 177 287 361
1097 422 533 258 537
1098 414 84 88 85
1099 486 427 490 395
1100 557 343 448 280
1101 450 194 457 193
1102 96 512 98 412
1103 485 482 481 420
1104 140 106 144 409
1105 499 302 299 339
1106 412 405 86 400
1107 411 106 140 409
1108 107 414 89 512
1109 125 99 395 151
1110 38 420 37 481
1111 38 37 420 163
1112 557 343 280 328
1113 419 410 508 397
1114 284 38 481 39
1115 507 475 509 488
1116 88 492 97 415
1117 423 284 481 39
1118 96 110 160 512
1119 414 411 492 493
1120 412 99 395 98
1121 454 491 416 447
1122 311 495 313 496
1123 410 106 79 83
1124 346 275 501 292
1125 400 516 402 504
1126 37 418 281 481
1127 445 425 386 393
1128 460 473 484 456
1129 130 539 12 524
1130 96 110 512 394
1131 209 406 228 433
1132 212 228 203 406
1133 67 147 480 39
1134 510 366 293 501
1135 483 526 166 242
1136 513 396 501 508
1137 457 473 456 484
1138 510 513 501 508
1139 295 501 329 500
1140 462 517 485 418
1141 236 434 454 231
1142 435 305 466 505
1143 399 92 93 492
1144 396 295 501 292
1145 374 323 334 443
1146 270 554 543 263
1147 557 183 184 440
1148 445 223 188 189
1149 309 302 303 469
1150 67 147 133 480
1151 225 463 486 478
1152 231 454 389 434
1153 445 438 447 444
1154 309 316 302 494
1155 392 517 484 485
1156 498 380 481 462
1157 461 217 430 423
1158 491 434 494 466
1159 176 278 372 251
1160 533 547 385 180
1161 157 125 395 151
1162 486 427 395 478
1163 58 538 32 397
1164 278 176 372 342
1165 404 443 441 479
1166 228 212 269 408
1167 436 176 372 251
1168 176 436 372 342
1169 29 479 349 407
1170 423 430 284 383
1171 213 406 425 424
1172 235 214 480 229
1173 364 423 284 383
1174 403 404 349 443
1175 209 249 433 228
1176 512 427 493 395
1177 497 499 505 514
1178 551 479 363 519
1179 162 4 549 6
1180 287 432 468 237
1181 513 500 514 390
1182 522 368 288 551
1183 202 471 214 482
1184 410 78 394 82
1185 271 528 53 52
1186 512 110 82 394
1187 245 212 424 408
1188 410 512 509 414
1189 414 411 85 492
1190 468 278 381 172
1191 410 512 414 82
1192 58 73 397 32
1193 410 512 82 394
1194 395 127 128 99
1195 33 396 417 397
1196 410 512 394 509
1197 390 515 514 513
1198 345 304 497 298
1199 452 464 453 511
1200 468 372 436 325
1201 102 91 413 90
1202 463 486 478 428
1203 425 386 406 458
1204 316 309 325 494
1205 309 469 325 494
1206 294 330 331 503
1207 460 392 461 456
1208 69 422 166 537
1209 495 443 503 317
1210 407 122 405 402
1211 315 322 314 440
1212 300 499 497 455
1213 473 229 482 202
1214 538 24 419 124
1215 185 188 439 441
1216 332 430 481 462
1217 396 513 417 508
1218 533 385 547 152
1219 309 310 469 303
1220 300 335 336 455
1221 326 498 359 337
1222 452 515 390 511
1223 298 297 497 296
1224 468 454 434 494
1225 487 470 493 472
1226 488 509 507 428
1227 491 455 502 499
1228 493 512 509 428
1229 492 385 493 472
1230 430 333 284 383
1231 327 432 494 468
1232 475 399 492 472
1233 509 488 475 493
1234 336 500 495 455
1235 345 358 296 514
1236 385 415 493 437
1237 467 305 435 307
1238 536 176 274 251
1239 405 121 413 101
1240 381 172 518 550
1241 320 344 435 307
1242 464 452 386 511
1243 233 545 431 430
1244 401 486 428 490
1245 388 457 477 488
1246 475 492 493 472
1247 421 418 37 481
1248 73 58 397 74
1249 238 441 442 479
1250 404 425 386 406
1251 312 319 310 496
1252 190 454 438 389
1253 150 77 76 419
1254 403 407 402 28
1255 550 352 50 518
1256 502 491 505 465
1257 472 470 475 474
1258 96 98 512 160
1259 510 366 501 500
1260 449 390 503 393
1261 27 403 402 28
1262 419 77 103 150
1263 493 509 512 414
1264 470 488 493 475
1265 191 190 389 222
1266 510 419 25 504
1267 295 396 296 291
1268 270 554 263 480
1269 206 201 461 207
1270 410 106 139 79
1271 446 454 416 447
1272 311 495 303 336
1273 440 446 449 439
1274 308 305 307 435
1275 507 515 453 511
1276 404 516 402 386
1277 190 191 438 189
1278 503 393 390 516
1279 429 475 484 387
1280 393 443 439 441
1281 510 366 500 294
1282 227 486 489 426
1283 194 196 200 473
1284 195 451 192 197
1285 401 386 476 406
1286 69 19 537 526
1287 451 470 428 463
1288 497 345 296 514
1289 411 506 409 398
1290 308 320 321 435
1291 448 557 280 520
1292 113 140 398 100
1293 223 445 425 458
1294 472 247 262 211
1295 510 419 504 508
1296 432 467 466 435
1297 326 498 337 308
1298 517 502 515 514
1299 557 343 328 440
1300 441 183 185 218
1301 291 396 292 295
1302 436 240 176 221
1303 393 452 447 390
1304 367 503 500 294
1305 441 445 439 393
1306 504 76 25 59
1307 506 485 517 418
1308 469 311 310 496
1309 466 392 461 462
1310 498 305 435 505
1311 297 298 497 299
1312 446 440 449 448
1313 449 390 393 447
1314 404 407 405 402
1315 96 412 98 87
1316 419 410 397 78
1317 468 469 416 494
1318 453 507 517 515
1319 327 316 325 494
1320 475 474 484 387
1321 429 422 471 483
1322 336 500 455 335
1323 491 434 466 465
1324 432 434 215 431
1325 38 67 163 420
1326 461 217 423 206
1327 92 399 93 94
1328 472 262 239 211
1329 525 385 437 129
1330 214 480 483 270
1331 436 449 416 469
1332 399 385 472 422
1333 279 431 344 432
1334 491 416 447 455
1335 452 502 390 515
1336 477 507 453 511
1337 464 452 453 444
1338 400 516 504 511
1339 442 322 443 440
1340 187 446 439 438
1341 468 469 494 325
1342 496 436 469 449
1343 531 289 546 364
1344 459 201 456 222
1345 430 333 362 321
1346 432 216 215 434
1347 392 465 456 453
1348 515 506 507 517
1349 162 424 549 31
1350 498 304 305 505
1351 459 392 466 465
1352 444 453 447 452
1353 502 491 465 447
1354 99 91 490 127
1355 276 25 516 510
1356 99 91 412 490
1357 512 427 395 490
1358 18 537 166 258
1359 506 421 409 398
1360 438 188 439 187
1361 451 458 192 197
1362 203 458 197 204
1363 478 427 493 428
1364 117 154 437 116
1365 412 91 98 87
1366 470 388 428 488
1367 401 486 490 406
1368 400 81 412 394
1369 275 396 290 32
1370 509 391 428 512
1371 69 422 537 159
1372 486 433 490 406
1373 451 388 464 428
1374 464 477 453 511
1375 132 69 142 483
1376 403 282 27 357
1377 504 76 59 77
1378 464 451 428 386
1379 103 77 394 158
1380 148 155 489 127
1381 433 489 490 413
1382 238 267 479 174
1383 523 137 135 408
1384 104 422 483 159
1385 334 403 443 371
1386 121 165 122 407
1387 407 121 137 408
1388 37 163 65 420
1389 515 513 390 511
1390 60 35 149 409
1391 191 192 444 189
1392 140 411 398 109
1393 69 422 159 483
1394 218 188 441 230
1395 470 487 478 199
1396 133 132 142 483
1397 80 77 81 400
1398 63 10 530 540
1399 422 104 108 159
1400 72 521 554 147
1401 488 509 428 493
1402 490 391 512 428
1403 464 511 386 428
1404 551 479 519 174
1405 451 428 470 388
1406 407 137 121 165
1407 549 260 523 6
1408 522 356 556 43
1409 527 501 538 23
1410 47 265 541 46
1411 537 422 108 159
1412 319 469 310 496
1413 531 289 57 546
1414 220 454 231 236
1415 446 184 440 448
1416 440 443 441 439
1417 556 522 442 356
1418 355 546 56 289
1419 491 502 455 447
1420 463 451 197 476
1421 206 460 200 229
1422 355 289 383 546
1423 457 194 473 196
1424 475 506 398 484
1425 556 356 285 43
1426 400 77 394 504
1427 407 408 406 405
1428 143 548 408 433
1429 125 512 395 98
1430 390 516 386 511
1431 238 267 213 479
1432 73 139 74 397
1433 495 496 469 449
1434 191 190 438 389
1435 387 474 484 473
1436 26 25 504 516
1437 190 454 231 220
1438 327 381 287 468
1439 25 26 504 59
1440 388 470 457 488
1441 205 474 196 224
1442 471 211 472 205
1443 485 418 481 462
1444 475 506 484 507
1445 82 410 79 83
1446 88 92 492 85
1447 34 33 409 126
1448 385 118 141 152
1449 253 261 437 171
1450 516 25 504 510
1451 31 479 519 363
1452 448 557 244 184
1453 400 111 405 86
1454 233 545 430 255
1455 348 33 290 396
1456 508 394 509 410
1457 468 327 325 494
1458 508 509 394 391
1459 510 419 508 501
1460 239 487 232 226
1461 511 509 508 391
1462 429 112 420 398
1463 499 491 466 505
1464 515 506 517 417
1465 520 265 244 46
1466 513 515 508 511
1467 391 512 394 412
1468 432 327 287 468
1469 537 18 166 19
1470 499 502 514 455
1471 531 289 364 375
1472 52 51 177 542
1473 124 538 23 3
1474 498 304 337 305
1475 23 527 346 3
1476 436 319 448 496
1477 443 495 503 449
1478 319 312 343 496
1479 278 176 342 534
1480 379 356 285 556
1481 59 26 402 138
1482 300 455 336 303
1483 418 517 506 417
1484 504 76 77 419
1485 275 396 501 292
1486 48 176 536 534
1487 341 309 469 325
1488 493 395 437 415
1489 99 412 395 490
1490 233 545 255 168
1491 478 487 493 384
1492 268 432 177 237
1493 172 550 50 518
1494 487 437 493 384
1495 212 245 424 213
1496 233 545 168 431
1497 99 125 395 98
1498 374 442 324 323
1499 469 311 496 495
1500 493 478 395 427
1501 415 512 414 493
1502 74 410 78 397
1503 493 395 478 384
1504 415 512 493 395
1505 14 529 13 131
1506 486 489 395 490
1507 415 512 395 89
1508 513 515 514 417
1509 460 484 392 456
1510 415 512 89 414
1511 348 396 290 358
1512 395 127 99 490
1513 216 432 468 434
1514 400 516 511 386
1515 433 413 490 406
1516 407 404 406 424
1517 404 407 406 405
1518 434 465 459 466
1519 72 521 147 161
1520 461 215 207 208
1521 348 277 417 369
1522 88 415 97 115
1523 411 475 398 492
1524 457 196 474 224
1525 454 190 231 389
1526 429 422 483 399
1527 487 470 472 232
1528 77 81 400 394
1529 448 319 343 496
1530 176 47 541 534
1531 36 421 35 418
1532 335 500 295 329
1533 421 113 149 164
1534 334 315 317 443
1535 446 184 185 440
1536 325 341 436 469
1537 436 449 448 446
1538 356 442 556 379
1539 438 220 187 446
1540 438 220 446 454
1541 385 487 472 239
1542 373 541 534 342
1543 188 185 218 441
1544 396 513 514 417
1545 451 445 458 386
1546 452 515 511 453
1547 399 492 93 398
1548 72 521 161 22
1549 401 486 406 476
1550 206 217 423 219
1551 467 432 494 327
1552 430 545 431 362
1553 507 475 488 484
1554 405 401 490 406
1555 405 90 412 86
1556 433 486 490 489
1557 113 100 398 112
1558 350 284 481 332
1559 308 305 498 337
1560 350 37 281 481
1561 140 113 398 164
1562 475 506 507 411
1563 513 500 390 510
1564 497 345 514 505
1565 423 206 219 229
1566 510 516 511 504
1567 396 290 358 291
1568 493 478 470 487
1569 474 488 484 457
1570 323 315 334 443
1571 282 403 334 371
1572 374 442 323 443
1573 56 289 546 57
1574 33 396 397 32
1575 442 322 323 443
1576 411 506 508 409
1577 404 386 405 406
1578 511 428 400 386
1579 457 194 456 473
1580 471 482 473 387
1581 446 416 449 447
1582 392 460 461 462
1583 460 473 456 200
1584 328 544 379 285
1585 457 477 453 464
1586 453 517 507 484
1587 7 523 6 71
1588 556 440 544 379
1589 493 470 478 428
1590 552 431 545 377
1591 421 37 65 420
1592 169 433 228 252
1593 548 181 252 8
1594 289 364 383 546
1595 495 313 317 340
1596 414 84 85 83
1597 421 112 65 113
1598 130 539 524 489
1599 486 427 478 428
1600 64 111 402 138
1601 440 446 439 185
1602 410 397 409 508
1603 483 482 429 420
1604 410 106 83 411
1605 480 246 170 535
1606 122 121 405 101
1607 377 431 545 362
1608 188 187 185 439
1609 419 124 24 76
1610 504 77 394 419
1611 463 486 428 476
1612 187 446 185 439
1613 70 529 13 539
1614 86 412 87 90
1615 395 127 490 489
1616 81 96 87 412
1617 81 412 87 86
1618 412 91 87 90
1619 407 64 402 28
1620 111 86 101 405
1621 445 438 444 189
1622 90 101 413 120
1623 143 433 123 68
1624 415 385 116 437
1625 405 404 402 386
1626 300 499 455 302
1627 103 78 419 75
1628 150 103 419 75
1629 393 445 439 447
1630 429 485 420 482
1631 452 445 393 447
1632 95 429 105 399
1633 483 133 156 142
1634 475 506 411 398
1635 538 24 124 23
1636 151 117 145 395
1637 154 117 437 426
1638 27 26 138 402
1639 420 133 67 156
1640 103 110 158 394
1641 36 421 37 65
1642 471 242 483 422
1643 512 125 160 98
1644 485 421 398 420
1645 242 214 483 270
1646 69 136 159 537
1647 461 434 208 459
1648 99 128 395 151
1649 11 63 524 540
1650 482 423 229 460
1651 530 123 148 433
1652 63 11 10 540
1653 8 9 252 548
1654 377 545 552 286
1655 81 77 158 394
1656 433 148 489 413
1657 143 548 433 68
1658 486 426 225 478
1659 181 408 252 269
1660 141 533 152 62
1661 487 470 232 199
1662 533 262 180 385
1663 539 128 130 70
1664 470 224 232 199
1665 422 166 258 247
1666 444 447 453 389
1667 530 249 489 266
1668 474 457 484 473
1669 43 556 264 182
1670 493 437 395 384
1671 457 388 477 464
1672 247 471 242 210
1673 474 205 196 202
1674 141 533 62 17
1675 201 460 206 461
1676 443 440 449 439
1677 425 238 213 479
1678 489 530 266 540
1679 425 404 479 424
1680 213 406 424 212
1681 387 472 475 474
1682 224 470 195 199
1683 206 460 229 423
1684 456 453 457 484
1685 535 480 147 40
1686 459 201 208 461
1687 535 161 147 521
1688 170 5 531 535
1689 539 128 70 145
1690 132 543 21 20
1691 308 326 435 321
1692 474 488 457 470
1693 421 112 113 398
1694 477 488 484 507
1695 399 92 119 94
1696 106 411 109 83
1697 411 106 109 140
1698 429 156 420 112
1699 179 526 20 543
1700 556 440 379 442
1701 416 455 469 449
1702 341 436 342 372
1703 433 120 413 408
1704 279 432 177 248
1705 233 461 207 217
1706 95 429 399 398
1707 172 50 550 250
1708 366 294 329 500
1709 293 346 24 501
1710 409 60 164 149
1711 95 399 105 104
1712 515 513 508 417
1713 436 454 468 416
1714 264 556 43 522
1715 104 399 105 483
1716 450 457 453 444
1717 121 408 413 120
1718 312 311 313 496
1719 80 400 402 504
1720 322 315 323 443
1721 404 403 349 407
1722 319 469 496 436
1723 121 143 408 120
1724 446 449 439 447
1725 14 529 131 61
1726 347 417 498 418
1727 374 334 349 443
1728 495 315 317 313
1729 496 495 313 449
1730 425 404 386 393
1731 59 80 402 504
1732 441 241 218 238
1733 297 300 497 335
1734 335 297 295 497
1735 345 417 514 505
1736 465 392 466 505
1737 482 429 484 387
1738 517 502 514 505
1739 41 42 551 174
1740 550 555 287 237
1741 55 532 178 56
1742 315 495 317 443
1743 276 503 510 516
1744 295 497 296 514
1745 476 401 428 386
1746 336 500 335 367
1747 503 516 390 510
1748 455 500 514 497
1749 176 278 536 534
1750 184 448 186 240
1751 231 459 389 222
1752 531 170 259 57
1753 431 432 466 435
1754 452 445 447 444
1755 438 188 187 189
1756 532 545 362 286
1757 463 470 195 451
1758 217 430 259 178
1759 486 427 428 490
1760 110 107 160 512
1761 452 393 386 390
1762 407 121 405 122
1763 117 157 395 151
1764 388 457 451 464
1765 470 388 457 451
1766 401 486 476 428
1767 7 135 523 71
1768 223 445 458 192
1769 225 463 478 199
1770 550 50 287 555
1771 198 463 199 195
1772 203 458 476 197
1773 247 471 210 211
1774 414 509 411 493
1775 387 472 474 471
1776 100 95 93 398
1777 517 506 507 484
1778 423 546 383 364
1779 429 156 112 105
1780 461 434 459 466
1781 435 461 466 431
1782 144 140 409 164
1783 422 242 166 247
1784 264 556 241 182
1785 471 211 205 210
1786 91 99 412 98
1787 55 286 54 545
1788 177 51 555 542
1789 452 502 515 453
1790 237 287 177 555
1791 187 190 438 189
1792 461 434 466 431
1793 241 556 264 522
1794 201 460 200 206
1795 51 555 287 50
1796 69 159 142 483
1797 532 545 286 55
1798 243 227 489 175
1799 426 227 175 489
1800 114 112 420 156
1801 100 140 398 109
1802 486 426 478 395
1803 205 474 471 202
1804 445 438 439 447
1805 490 391 428 400
1806 358 396 296 514
1807 474 488 470 475
1808 449 390 447 455
1809 488 470 493 428
1810 556 441 241 183
1811 491 434 465 454
1812 92 85 93 492
1813 477 388 488 428
1814 263 21 554 543
1815 434 465 454 389
1816 4 31 549 519
1817 500 335 497 455
1818 500 335 295 497
1819 432 344 435 431
1820 467 432 466 494
1821 509 391 512 394
1822 158 110 96 394
1823 442 556 241 522
1824 227 486 426 225
1825 78 110 394 82
1826 419 410 78 394
1827 396 291 358 296
1828 301 499 497 299
1829 557 45 167 544
1830 385 399 492 119
1831 69 526 20 19
1832 434 216 215 208
1833 461 201 208 207
1834 461 215 208 434
1835 175 529 426 539
1836 461 215 434 431
1837 363 30 479 283
1838 407 404 479 349
1839 532 255 545 55
1840 321 320 362 435
1841 220 187 446 186
1842 557 45 244 167
1843 517 465 505 392
1844 121 408 405 413
1845 508 504 391 394
1846 530 252 169 9
1847 168 233 431 215
1848 408 228 252 269
1849 476 428 451 386
1850 396 33 290 32
1851 476 451 428 463
1852 378 448 343 280
1853 278 172 536 518
1854 391 504 508 511
1855 104 483 105 142
1856 400 391 394 412
1857 344 467 435 307
1858 103 110 394 78
1859 107 125 160 512
1860 528 168 53 552
1861 128 151 145 395
1862 414 415 493 492
1863 509 391 511 428
1864 261 487 437 239
1865 198 209 225 486
1866 456 457 453 450
1867 502 515 514 390
1868 139 74 410 79
1869 54 545 552 168
1870 55 545 54 255
1871 129 385 437 116
1872 180 385 262 273
1873 157 117 415 115
1874 415 88 89 115
1875 117 415 115 116
1876 520 265 448 244
1877 385 415 116 97
1878 118 385 116 97
1879 473 229 202 200
1880 538 24 23 501
1881 266 524 489 540
1882 249 243 489 266
1883 278 176 536 251
1884 418 409 417 506
1885 426 117 437 395
1886 125 512 89 395
1887 414 88 492 85
1888 460 482 485 484
1889 162 424 31 146
1890 31 479 363 30
1891 424 519 549 31
1892 425 213 424 479
1893 231 216 434 208
1894 409 506 508 417
1895 551 479 174 442
1896 173 4 549 519
1897 256 41 519 174
1898 442 522 174 551
1899 4 162 549 31
1900 445 223 425 188
1901 184 183 185 440
1902 522 368 442 356
1903 416 455 449 447
1904 522 368 551 442
1905 472 247 211 471
1906 470 457 195 451
1907 457 470 195 224
1908 482 423 460 481
1909 464 445 451 386
1910 551 368 288 363
1911 463 198 197 195
1912 455 302 494 469
1913 423 531 170 259
1914 302 316 339 494
1915 429 156 105 483
1916 499 302 494 455
1917 311 312 310 496
1918 469 311 495 303
1919 531 289 375 57
1920 491 434 454 494
1921 455 495 336 303
1922 386 401 405 406
1923 302 300 303 455
1924 102 91 127 413
1925 471 482 483 214
1926 117 154 145 426
1927 225 463 199 198
1928 362 545 377 286
1929 499 491 494 466
1930 12 11 130 524
1931 437 261 273 171
1932 168 431 248 215
1933 268 432 215 248
1934 316 327 360 494
1935 468 272 237 236
1936 423 170 219 259
1937 553 129 525 437
1938 116 553 437 129
1939 436 454 416 446
1940 454 491 494 416
1941 431 430 362 435
1942 216 432 268 237
1943 403 282 334 349
1944 442 356 368 324
1945 333 430 284 332
1946 479 374 443 442
1947 29 479 407 30
1948 464 445 386 452
1949 443 403 503 371
1950 403 330 503 371
1951 319 378 342 448
1952 390 495 500 455
1953 331 495 317 340
1954 491 465 466 505
1955 344 432 435 467
1956 517 498 505 417
1957 302 499 494 339
1958 21 132 554 543
1959 499 467 494 339
1960 438 220 454 190
1961 440 185 439 441
1962 278 48 534 373
1963 172 381 468 550
1964 33 397 417 409
1965 467 306 307 318
1966 450 389 456 222
1967 498 337 338 359
1968 498 304 338 337
1969 359 498 382 338
1970 409 397 417 508
1971 442 238 479 174
1972 421 409 164 149
1973 294 367 329 500
1974 301 467 339 306
1975 496 440 314 343
1976 403 330 276 503
1977 282 403 371 357
1978 81 96 394 158
1979 432 431 215 248
1980 396 358 417 514
1981 397 139 409 126
1982 400 516 386 402
1983 495 315 313 449
1984 300 499 302 299
1985 520 265 46 541
1986 556 441 183 440
1987 443 371 503 317
1988 209 406 433 486
1989 425 445 386 458
1990 452 445 386 393
1991 392 453 456 484
1992 441 445 393 425
1993 521 21 554 263
1994 476 209 486 406
1995 48 278 536 49
1996 188 425 441 230
1997 117 426 145 395
1998 157 415 89 115
1999 115 415 97 116
2000 416 455 494 469
2001 407 121 408 405
2002 416 491 494 455
2003 130 539 70 12
2004 253 234 426 261
2005 118 385 129 116
2006 391 504 400 394
2007 463 486 476 198
2008 487 199 232 226
2009 411 475 492 493
2010 225 463 198 486
2011 512 427 490 428
2012 521 21 263 22
2013 441 445 425 188
2014 441 445 188 439
2015 556 441 440 442
2016 213 425 204 230
2017 496 436 449 448
2018 446 436 186 448
2019 184 448 240 244
2020 176 436 342 448
2021 436 319 341 342
2022 544 183 440 556
2023 400 401 405 386
2024 450 194 456 457
2025 88 414 492 415
2026 470 474 472 232
2027 400 504 391 511
2028 554 480 521 263
2029 201 194 456 222
2030 460 201 456 461
2031 395 426 384 437
2032 465 389 456 453
2033 387 472 471 429
2034 194 450 456 222
2035 471 429 482 387
2036 491 499 494 455
2037 385 487 239 437
2038 157 117 395 415
2039 472 262 422 385
2040 205 474 232 472
2041 239 487 472 232
2042 385 487 437 493
2043 191 450 389 444
2044 328 544 285 365
2045 390 495 455 449
2046 451 458 476 386
2047 438 446 439 447
2048 507 477 453 484
2049 249 227 209 489
2050 249 227 489 243
2051 405 408 406 413
2052 478 199 226 225
2053 127 91 490 413
2054 91 412 413 90
2055 202 474 473 196
2056 389 450 456 453
2057 201 459 456 461
2058 384 426 395 478
2059 330 403 276 357
2060 506 485 418 421
2061 445 192 189 444
2062 172 278 536 251
2063 384 426 487 437
2064 112 114 420 65
2065 487 426 384 478
2066 436 240 221 186
2067 95 429 398 112
2068 95 429 112 105
2069 261 487 426 437
2070 234 253 426 175
2071 34 33 417 409
2072 454 446 438 447
2073 84 414 82 83
2074 226 426 487 478
2075 504 510 508 511
2076 421 418 481 485
2077 448 265 240 244
2078 460 485 481 462
2079 535 423 170 480
2080 418 498 281 481
2081 462 423 481 460
2082 474 471 473 387
2083 206 460 423 461
2084 535 22 521 246
2085 434 432 466 431
2086 414 84 82 107
2087 107 110 82 512
2088 414 107 82 512
2089 434 465 389 459
2090 438 188 189 445
2091 410 74 78 79
2092 414 410 82 83
2093 440 557 448 184
2094 125 107 89 512
2095 404 443 393 441
2096 425 404 393 441
2097 429 156 483 420
2098 477 457 484 488
2099 492 411 93 398
2100 93 100 398 109
2101 95 399 93 398
2102 425 238 230 213
2103 412 405 400 490
2104 80 81 86 400
2105 540 524 489 63
2106 368 479 442 374
2107 465 389 453 447
2108 319 469 436 341
2109 282 403 28 349
2110 436 319 342 448
2111 469 311 303 310
2112 319 469 341 310
2113 326 498 380 359
2114 537 422 166 258
2115 341 309 310 469
2116 544 44 285 365
2117 410 139 409 397
2118 140 411 409 398
2119 489 130 63 524
2120 489 63 130 155
2121 443 403 393 503
2122 286 552 354 54
2123 45 44 544 365
2124 376 551 288 363
2125 436 449 446 416
2126 533 262 385 422
2127 554 521 480 147
2128 548 408 181 523
2129 325 436 341 372
2130 468 372 325 381
2131 41 42 288 551
2132 557 45 520 244
2133 179 526 543 242
2134 491 454 465 447
2135 470 463 195 199
2136 429 422 399 472
2137 118 385 119 152
2138 30 407 424 479
2139 205 202 471 210
2140 429 485 398 420
2141 404 407 479 424
2142 479 519 174 267
2143 468 454 494 416
2144 436 176 251 221
2145 172 250 550 237
2146 468 278 172 251
2147 474 470 224 232
2148 385 399 472 492
2149 426 478 226 225
2150 487 199 226 478
2151 408 212 424 406
2152 443 404 349 479
2153 157 125 89 395
2154 70 12 539 13
2155 368 479 283 363
2156 70 529 539 145
2157 385 239 262 273
2158 553 253 14 529
2159 232 205 472 211
2160 239 385 437 273
2161 247 422 262 258
2162 446 184 186 185
2163 179 526 242 257
2164 455 495 469 449
2165 111 122 64 402
2166 503 403 516 276
2167 435 498 505 462
2168 403 26 276 357
2169 403 330 371 357
2170 26 403 27 357
2171 433 228 408 406
2172 63 530 489 540
2173 418 36 37 281
2174 38 420 481 39
2175 326 498 435 462
2176 293 294 510 276
2177 500 295 501 514
2178 295 396 501 514
2179 513 396 514 501
2180 336 500 367 495
2181 530 540 10 266
2182 557 365 45 544
2183 304 301 497 298
2184 468 278 251 372
2185 468 372 251 436
2186 543 263 21 179
2187 517 465 392 453
2188 517 465 453 502
2189 506 411 508 507
2190 482 423 481 480
2191 482 480 420 483
2192 348 396 358 417
2193 515 506 417 508
2194 530 252 9 548
2195 201 194 200 456
2196 45 44 167 544
2197 522 264 42 43
2198 477 457 453 484
2199 390 510 500 503
2200 270 543 242 179
2201 279 370 542 177
2202 56 546 259 57
2203 345 304 505 497
2204 333 430 332 321
2205 141 533 17 547
2206 462 423 460 461
2207 483 156 105 142
2208 279 431 432 248
2209 320 377 362 431
2210 62 18 17 533
2211 425 238 479 441
2212 458 223 197 204
2213 47 541 351 46
2214 305 301 466 505
2215 133 147 72 554
2216 458 223 192 197
2217 407 165 122 153
2218 348 358 369 417
2219 480 235 263 270
2220 33 397 409 126
2221 35 34 277 417
2222 139 144 409 126
2223 419 504 508 394
2224 135 143 408 137
2225 213 406 212 204
2226 523 137 408 424
2227 246 480 235 263
2228 508 538 419 397
2229 538 24 501 419
2230 24 510 501 419
2231 538 75 124 419
2232 124 150 419 75
2233 350 281 380 481
2234 460 482 481 485
2235 223 425 188 230
2236 448 440 449 496
2237 270 554 480 483
2238 543 179 270 263
2239 543 179 21 20
2240 51 250 555 50
2241 436 240 186 448
2242 356 442 379 324
2243 400 401 386 428
2244 311 495 340 313
2245 457 450 193 444
2246 553 129 15 525
2247 7 548 181 523
2248 122 111 405 402
2249 393 443 449 439
2250 503 403 393 516
2251 220 468 436 454
2252 236 434 231 216
2253 236 434 216 468
2254 172 550 468 237
2255 436 454 446 220
2256 220 468 221 436
2257 304 301 305 505
2258 172 272 237 468
2259 14 15 553 61
2260 550 287 468 237
2261 228 212 408 406
2262 388 477 464 428
2263 415 385 493 492
2264 553 129 61 15
2265 117 415 437 395
2266 403 404 402 407
2267 415 157 89 395
2268 451 463 197 195
2269 512 412 395 98
2270 209 406 203 228
2271 408 433 406 413
2272 327 467 360 494
2273 499 502 505 514
2274 297 295 497 296
2275 315 443 440 449
2276 468 469 325 436
2277 548 7 181 8
2278 525 437 273 171
2279 392 517 453 484
2280 517 498 417 418
2281 544 557 328 440
2282 35 277 347 417
2283 523 181 245 408
2284 551 522 42 288
2285 346 23 24 501
2286 367 503 294 331
2287 346 366 292 501
2288 516 510 511 390
2289 26 25 516 276
2290 403 26 516 276
2291 517 465 502 505
2292 443 503 393 449
2293 172 49 536 518
2294 49 278 518 352
2295 429 399 483 105
2296 40 364 423 39
2297 15 129 16 525
2298 489 530 148 433
2299 552 53 354 54
2300 172 536 49 274
2301 547 129 525 16
2302 111 80 402 138
2303 135 408 548 523
2304 403 407 28 349
2305 282 403 27 28
2306 338 417 345 505
2307 214 235 480 270
2308 550 250 555 237
2309 281 498 380 481
2310 414 411 83 85
2311 355 333 430 383
2312 359 498 380 281
2313 414 410 83 411
2314 347 498 417 382
2315 63 530 148 489
2316 104 159 483 142
2317 116 553 129 61
2318 515 506 508 507
2319 73 139 397 126
2320 345 358 417 369
2321 33 73 397 126
2322 116 553 61 154
2323 304 345 505 338
2324 122 407 64 402
2325 400 111 86 80
2326 213 406 204 425
2327 113 421 398 164
2328 143 121 408 137
2329 7 135 548 523
2330 78 410 79 82
2331 462 423 461 430
2332 498 304 505 338
2333 411 85 109 83
2334 423 40 39 480
2335 60 144 409 164
2336 360 467 361 318
2337 390 500 514 455
2338 502 390 514 455
2339 471 242 210 214
2340 214 482 483 480
2341 417 517 514 505
2342 421 36 149 65
2343 432 344 318 467
2344 88 97 492 92
2345 116 553 154 437
2346 419 410 394 508
2347 106 410 139 409
2348 529 437 426 154
2349 550 381 468 287
2350 165 66 407 137
2351 9 530 68 134
2352 553 253 529 437
2353 8 135 68 548
2354 344 432 318 370
2355 377 552 354 286
2356 182 556 544 43
2357 44 182 544 43
2358 467 432 361 318
2359 430 217 233 178
2360 135 7 548 8
2361 457 224 193 196
2362 224 457 193 195
2363 451 195 192 193
2364 432 370 361 318
2365 517 502 453 515
2366 194 457 193 196
2367 408 407 406 424
2368 451 457 195 193
2369 203 212 406 204
2370 198 203 476 197
2371 295 329 501 292
2372 292 366 329 501
2373 482 202 229 214
2374 425 223 458 204
2375 521 21 22 72
2376 550 50 555 250
2377 550 352 287 50
2378 432 268 177 248
2379 261 487 239 226
2380 550 352 381 287
2381 220 468 454 236
2382 279 432 344 370
2383 448 520 351 541
2384 271 528 177 248
2385 261 487 226 426
2386 261 234 426 226
2387 366 500 329 501
2388 515 517 514 417
2389 16 547 141 17
2390 399 422 104 108
2391 62 537 533 108
2392 62 537 108 136
2393 212 245 269 408
2394 495 311 340 336
2395 367 495 340 336
2396 167 544 44 182
2397 546 430 383 355
2398 546 430 355 532
2399 442 238 174 241
2400 495 367 340 331
2401 431 528 354 552
2402 342 378 351 448
2403 528 552 53 354
2404 335 300 497 455
2405 521 21 72 554
2406 468 469 436 416
2407 301 499 299 339
2408 467 360 339 306
2409 301 467 499 339
2410 345 298 497 296
2411 334 443 317 371
2412 389 454 438 447
2413 454 389 465 447
2414 448 440 496 343
2415 309 302 469 494
2416 483 543 554 132
2417 378 319 343 448
2418 176 48 536 274
2419 36 418 35 347
2420 432 468 434 494
2421 522 356 42 288
2422 367 335 329 500
2423 367 503 331 495
2424 467 499 494 466
2425 24 510 419 25
2426 396 275 291 292
2427 24 510 25 293
2428 527 23 346 501
2429 34 35 409 417
2430 47 176 48 534
2431 510 366 294 293
2432 150 124 419 76
2433 440 328 314 343
2434 525 15 553 171
2435 442 374 324 368
2436 368 479 374 283
2437 440 322 314 328
2438 496 313 314 449
2439 322 442 324 379
2440 442 322 440 379
2441 513 500 510 501
2442 367 503 495 500
2443 301 499 466 505
2444 508 538 397 396
2445 293 366 346 501
2446 404 403 393 443
2447 508 538 396 501
2448 440 496 314 449
2449 477 507 511 428
2450 381 327 325 468
2451 464 445 452 444
2452 361 370 542 353
2453 464 445 444 451
2454 213 267 424 479
2455 203 458 406 476
2456 476 209 406 203
2457 404 516 386 393
2458 46 541 351 520
2459 411 509 508 507
2460 433 120 408 143
2461 490 391 400 412
2462 266 524 243 489
2463 255 430 233 178
2464 532 255 55 178
2465 122 111 101 405
2466 480 67 39 420
2467 471 242 214 483
2468 423 531 259 364
2469 521 480 246 263
2470 420 133 156 483
2471 255 430 178 532
2472 421 37 420 481
2473 430 545 362 532
2474 40 147 39 480
2475 467 301 466 305
2476 452 502 453 447
2477 548 181 408 252
2478 344 320 435 431
2479 513 500 501 514
2480 461 217 206 207
2481 498 359 382 347
2482 437 525 553 171
2483 517 498 418 462
2484 467 305 466 435
2485 438 220 190 187
2486 190 231 389 222
2487 438 389 447 444
2488 351 448 280 520
2489 52 542 279 353
2490 506 485 421 398
2491 392 459 456 465
2492 538 75 419 397
2493 465 502 447 453
2494 451 457 193 444
2495 449 393 439 447
2496 404 516 393 403
2497 451 445 444 192
2498 418 409 506 421
2499 431 528 552 248
2500 216 432 215 268
2501 462 392 505 466
2502 435 461 431 430
2503 201 459 208 222
2504 486 426 395 489
2505 475 399 472 429
2506 429 422 472 471
2507 475 399 429 398
2508 387 472 429 475
2509 277 382 417 369
2510 482 214 229 480
2511 535 423 480 40
2512 480 170 246 235
2513 430 545 532 255
2514 102 123 120 413
2515 102 90 413 120
2516 63 155 489 148
2517 358 345 417 514
2518 36 418 347 281
2519 421 398 164 409
2520 499 455 514 497
2521 397 396 417 508
2522 500 295 514 497
2523 60 34 35 409
2524 552 545 54 286
2525 528 168 552 248
2526 430 321 362 435
2527 418 35 347 417
2528 5 531 57 170
2529 287 177 542 361
2530 327 432 287 361
2531 277 382 347 417
2532 538 75 397 58
2533 467 301 305 306
2534 517 498 462 505
2535 320 308 307 435
2536 168 53 552 54
2537 33 348 417 396
2538 348 33 417 34
2539 466 392 459 461
2540 344 467 307 318
2541 8 9 548 68
2542 553 253 437 171
2543 530 548 9 68
2544 530 9 10 134
2545 482 480 481 420
2546 421 485 481 420
2547 452 502 447 390
2548 490 391 412 512
2549 513 510 390 511
2550 404 425 406 424
2551 522 368 356 288
2552 124 58 538 3
2553 373 541 342 351
2554 401 400 490 428
2555 51 287 542 353
2556 451 445 192 458
2557 168 545 255 54
2558 510 513 508 511
2559 404 516 403 402
2560 403 26 27 402
2561 407 29 28 349
2562 26 516 504 402
2563 64 27 402 28
2564 80 59 402 138
2565 27 64 402 138
2566 407 64 28 153
2567 26 403 516 402
2568 407 122 64 153
2569 78 397 419 75
2570 78 74 397 75
2571 538 75 58 124
2572 58 74 75 397
2573 512 427 428 493
2574 405 90 86 101
2575 458 386 406 476
2576 400 405 402 386
2577 415 117 437 116
2578 411 93 398 109
2579 415 385 492 97
2580 551 368 363 479
2581 385 118 119 97
2582 62 537 136 18
2583 118 385 141 129
2584 533 262 422 258
2585 533 262 258 180
2586 69 537 19 136
2587 19 166 537 526
2588 413 148 123 433
2589 413 123 148 102
2590 422 152 119 385
2591 119 152 422 108
2592 119 399 422 385
2593 422 399 119 108
2594 523 146 137 424
2595 523 146 424 162
2596 260 424 549 523
2597 523 146 162 71
2598 260 424 523 245
2599 483 526 242 543
2600 179 526 257 20
2601 20 543 69 132
2602 476 209 203 198
2603 476 209 198 486
2604 29 479 30 283
2605 29 479 283 349
2606 468 278 372 381
2607 468 251 172 272
2608 423 546 364 259
2609 423 546 259 430
2610 227 486 225 209
2611 227 486 209 489
2612 494 360 339 467
2613 494 339 360 316
2614 422 533 537 108
2615 108 152 533 62
2616 267 519 174 256
2617 479 519 267 424
2618 77 504 80 59
2619 80 504 77 400
2620 530 123 433 68
2621 530 123 68 134
2622 480 219 170 235
2623 480 170 219 423
2624 176 541 47 265
2625 373 541 351 47
2626 529 553 437 154
2627 523 137 71 135
2628 554 133 132 72
2629 433 120 143 123
2630 433 120 123 413
2631 525 180 273 385
2632 547 129 16 141
2633 525 180 385 547
2634 547 129 141 385
2635 108 537 159 136
2636 422 533 108 152
2637 287 542 353 361
2638 426 128 395 489
2639 426 128 489 539
2640 237 555 177 250
2641 237 177 287 432
2642 177 555 51 250
2643 51 287 555 542
2644 175 529 539 13
2645 154 145 529 131
2646 539 426 175 489
2647 426 128 539 145
2648 63 530 10 134
2649 530 123 134 148
2650 63 530 134 148
2651 540 11 10 266
2652 557 365 544 328
2653 280 45 557 365
2654 557 183 440 544
2655 557 183 544 167
2656 266 524 11 243
2657 184 557 244 167
2658 238 441 230 218
2659 217 423 259 430
2660 259 423 217 219
2661 425 238 441 230
2662 441 241 238 442
2663 541 342 448 176
2664 230 223 425 204
2665 473 229 200 460
2666 473 200 202 196
2667 480 554 147 133
2668 480 554 133 483
2669 70 529 145 131
2670 70 529 131 13
2671 479 374 283 349
2672 479 374 349 443
2673 241 522 174 442
2674 241 174 522 264
2675 143 548 68 135
2676 143 548 135 408
2677 528 177 52 271
2678 52 177 528 542
2679 554 483 132 133
2680 543 69 132 483
2681 468 216 237 432
2682 468 237 216 236
2683 426 227 225 234
2684 426 227 234 175
2685 204 406 458 425
2686 204 458 406 203
2687 338 498 417 505
2688 338 417 498 382
2689 338 417 382 369
2690 338 417 369 345
2691 510 294 503 276
2692 510 503 294 500
2693 14 15 171 553
2694 21 554 132 72
2695 220 468 236 221
2696 236 221 468 272
2697 251 221 468 436
2698 251 468 221 272
2699 544 183 556 182
2700 544 183 182 167
2701 523 146 71 137
2702 523 424 408 245
2703 260 424 245 173
2704 523 549 6 162
2705 361 177 370 432
2706 361 370 177 542
2707 137 407 424 66
2708 137 424 407 408
2709 483 526 543 69
2710 69 422 483 166
2711 183 556 182 241
2712 557 183 167 184
2713 528 168 248 271
2714 528 168 271 53
2715 431 354 344 377
2716 431 354 377 552
2717 431 528 248 279
2718 552 431 248 168
2719 546 178 532 56
2720 546 178 56 259
2721 260 424 173 549
2722 520 265 541 448
2723 541 176 448 265
2724 541 342 351 448
2725 293 510 25 276
2726 24 510 293 501
2727 256 4 173 519
2728 424 549 523 162
2729 552 431 168 545
2730 462 380 332 326
2731 462 332 380 481
2732 498 347 281 359
2733 281 347 498 418
2734 549 4 173 6
2735 546 178 259 430
2736 518 352 50 49
2737 518 278 381 352
2738 550 352 518 381
2739 47 534 48 373
2740 373 541 47 534
2741 278 534 342 373
2742 267 256 173 519
2743 4 519 41 376
2744 376 519 363 31
2745 519 551 174 41
2746 376 551 363 519
2747 376 519 31 4
2748 280 45 46 520
2749 177 279 528 542
2750 351 280 448 378
2751 280 46 351 520
2752 539 426 145 529
2753 426 128 145 395
2754 541 342 176 534
2755 166 69 537 526
2756 535 22 246 5
2757 539 12 175 13
2758 535 161 5 40
2759 535 161 40 147
2760 521 22 263 246
2761 174 522 42 551
2762 62 537 18 533
2763 49 278 536 518
2764 356 522 42 43
2765 278 48 536 534
2766 279 431 354 344
2767 539 524 489 175
2768 260 7 181 523
2769 7 260 6 523
2770 523 245 181 260
2771 549 260 6 173
2772 266 524 540 11
2773 12 243 524 175
2774 12 11 524 243
2775 243 489 524 175
2776 175 529 13 253
2777 535 423 40 531
2778 15 525 254 171
2779 254 525 273 171
2780 15 525 16 254
2781 530 252 548 433
2782 547 129 385 525
2783 483 526 69 166
2784 526 257 20 19
2785 19 166 526 257
2786 52 51 542 353
2787 526 166 242 257
2788 396 275 527 32
2789 527 275 3 32
2790 527 275 346 3
2791 275 396 527 501
2792 275 527 346 501
2793 528 279 53 52
2794 528 279 177 248
2795 528 279 354 53
2796 279 52 528 542
2797 431 528 279 354
2798 529 553 154 61
2799 14 253 13 529
2800 175 529 253 426
2801 529 553 61 14
2802 529 426 145 154
2803 553 253 171 14
2804 169 530 10 266
2805 530 249 266 169
2806 530 548 68 433
2807 169 9 10 530
2808 530 252 433 169
2809 530 249 169 433
2810 40 364 375 531
2811 375 40 531 5
2812 531 546 57 259
2813 531 546 259 364
2814 5 375 57 531
2815 423 546 430 383
2816 55 355 532 56
2817 355 430 362 532
2818 286 355 362 532
2819 55 355 286 532
2820 56 355 532 546
2821 533 385 152 422
2822 180 533 17 258
2823 533 18 17 258
2824 533 537 18 258
2825 535 246 170 5
2826 521 480 147 535
2827 539 524 175 12
2828 521 480 535 246
2829 535 22 5 161
2830 279 370 353 542
$EndElements
