# Blender 5.1.0
# www.blender.org
mtllib ribcage.mtl
o obj2
v 8.382955 -29.780966 -4.076497
v 9.724468 -27.586699 -4.212053
v 9.815006 -27.227083 -5.043807
v 8.884948 -29.625570 -5.719601
v 16.389730 -29.473801 -6.867319
v 15.800974 -26.923542 -5.814919
v 16.215504 -27.227083 -5.043807
v 17.145561 -29.625570 -5.719601
v 17.647554 -29.780966 -4.076497
v 16.306042 -27.586699 -4.212053
v 16.306042 -27.983786 -3.558904
v 17.059139 -30.012489 -2.799875
v 9.819965 -30.210363 -1.587965
v 10.180522 -28.340601 -2.839556
v 9.724468 -27.983786 -3.558904
v 8.971371 -30.012489 -2.799875
v 17.147596 -40.915234 -3.032094
v 17.997740 -42.277992 -2.861582
v 17.925018 -41.889362 -1.204306
v 16.865414 -39.773869 0.537167
v 9.967887 -27.537870 -4.302598
v 9.724468 -27.586699 -4.212053
v 9.724468 -27.983786 -3.558904
v 10.180522 -28.340601 -2.839556
v 9.024005 -38.343216 0.467079
v 8.959724 -36.929436 0.508585
v 7.608849 -36.925228 -1.085068
v 7.673933 -39.407352 -0.804584
v 9.171161 -34.517281 0.027785
v 9.459408 -32.107155 -0.508799
v 8.218274 -32.024059 -1.924160
v 7.842460 -34.475731 -1.347464
v 18.955736 -39.650864 -3.221863
v 19.376434 -36.927402 -3.374644
v 18.421661 -36.925228 -1.085068
v 18.356577 -39.407352 -0.804584
v 19.138744 -34.475731 -3.586818
v 18.710014 -32.024059 -3.940941
v 17.812235 -32.024059 -1.924160
v 18.188049 -34.475731 -1.347464
v 16.784622 -39.220623 -6.739622
v 17.147596 -36.927402 -7.422671
v 18.834860 -37.010292 -5.890532
v 18.293766 -39.525162 -5.432055
v 17.026449 -34.475731 -7.693985
v 16.905300 -32.024059 -7.819193
v 18.140158 -32.024059 -6.395396
v 18.481524 -34.475731 -6.225002
v 7.074775 -39.650864 -3.221863
v 6.654076 -36.927402 -3.374644
v 7.195650 -37.010292 -5.890532
v 7.736743 -39.525162 -5.432055
v 6.891765 -34.475731 -3.586818
v 7.320495 -32.024059 -3.940941
v 7.890351 -32.024059 -6.395396
v 7.548986 -34.475731 -6.225002
v 9.125209 -32.024059 -7.819193
v 9.004062 -34.475731 -7.693985
v 10.949085 -32.024059 -8.252606
v 10.949085 -34.475731 -8.011914
v 13.015255 -32.024059 -8.366584
v 13.015255 -34.475731 -8.023187
v 15.081426 -32.024059 -8.252606
v 15.081426 -34.475731 -8.011914
v 8.882915 -36.927402 -7.422671
v 9.245889 -39.220623 -6.739622
v 10.949085 -36.927402 -7.679789
v 10.949084 -38.689884 -7.114100
v 13.015255 -36.927402 -7.679789
v 13.015255 -38.083710 -7.295333
v 15.081426 -36.927402 -7.679789
v 15.081426 -38.689884 -7.114100
v 16.571102 -32.107155 -0.508799
v 16.859348 -34.517281 0.027785
v 15.081426 -32.024059 -0.029347
v 15.081426 -34.397156 0.733683
v 13.015255 -32.071911 0.059028
v 13.015255 -34.085697 0.736424
v 10.949084 -32.024059 -0.029347
v 10.949084 -34.397156 0.733683
v 17.070786 -36.929436 0.508585
v 17.006504 -38.343216 0.467079
v 15.081426 -36.815510 1.091891
v 15.081426 -37.144005 1.104948
v 15.081426 -37.470280 1.124178
v 13.015255 -36.185413 1.140273
v 13.015255 -36.185413 1.140273
v 10.949084 -36.815510 1.091891
v 10.949084 -37.144005 1.104948
v 10.949085 -37.470280 1.124178
v 16.062624 -27.537870 -4.302598
v 15.849988 -28.340601 -2.839556
v 15.081426 -27.537870 -4.302598
v 14.899150 -28.522423 -2.384717
v 13.015255 -27.537870 -4.302598
v 13.015255 -28.544506 -2.348072
v 10.949084 -27.537870 -4.302598
v 11.131360 -28.522423 -2.384717
v 8.032770 -42.277992 -2.861582
v 8.882915 -40.915234 -3.032094
v 9.165096 -39.773869 0.537167
v 8.105492 -41.889362 -1.204306
v 10.949084 -38.920200 -2.855968
v 10.949085 -37.470280 1.124178
v 13.015255 -37.781097 -2.855968
v 13.015255 -36.185413 1.140273
v 15.081426 -38.920200 -2.855968
v 15.081426 -37.470280 1.124178
v 15.849988 -28.340601 -2.839556
v 16.210545 -30.210363 -1.587965
v 14.899150 -28.522423 -2.384717
v 14.990288 -30.293510 -1.017070
v 13.015255 -28.544506 -2.348072
v 13.015255 -30.365980 -0.918281
v 11.131360 -28.522423 -2.384717
v 11.040222 -30.293510 -1.017070
v 10.229536 -26.923542 -5.814919
v 9.640779 -29.473801 -6.867319
v 11.295949 -26.699255 -6.409518
v 11.122517 -29.361658 -7.400583
v 13.015255 -26.543310 -6.737982
v 13.015255 -29.283686 -7.695206
v 14.734561 -26.699255 -6.409518
v 14.907993 -29.361658 -7.400583
v 15.081426 -40.442013 -6.507227
v 16.421646 -41.483227 -5.846738
v 13.015255 -39.240013 -6.930408
v 10.949084 -40.442013 -6.507227
v 9.608863 -41.483227 -5.846738
v 8.754692 -42.077732 -4.727995
v 11.295949 -26.699255 -6.409518
v 10.229536 -26.923542 -5.814919
v 13.015255 -26.543310 -6.737982
v 14.734561 -26.699255 -6.409518
v 15.800974 -26.923542 -5.814919
v 7.842460 -34.475731 -1.347464
v 8.218274 -32.024059 -1.924160
v 7.673933 -39.407352 -0.804584
v 7.608849 -36.925228 -1.085068
v 9.815006 -27.227083 -5.043807
v 17.275818 -42.077732 -4.727995
v 8.971371 -30.012489 -2.799875
v 9.724468 -27.983786 -3.558904
v 8.105492 -41.889362 -1.204306
v 8.032770 -42.277992 -2.861582
v 9.165096 -39.773869 0.537167
v 16.865414 -39.773869 0.537167
v 15.081426 -40.442013 -6.507227
v 16.421646 -41.483227 -5.846738
v 13.015255 -39.240013 -6.930408
v 10.949084 -40.442013 -6.507227
v 9.608863 -41.483227 -5.846738
v 8.754692 -42.077732 -4.727995
v 8.105492 -41.889362 -1.204306
vn -0.3976 0.9160 -0.0530
vn -0.3976 0.9160 -0.0531
vn -0.3976 0.9160 -0.0529
vn 0.4101 0.8891 -0.2034
vn 0.4101 0.8891 -0.2035
vn 0.4101 0.8890 -0.2035
vn 0.4101 0.8890 -0.2034
vn 0.4102 0.8890 -0.2034
vn 0.3402 0.9248 0.1704
vn 0.3402 0.9248 0.1705
vn 0.3401 0.9248 0.1705
vn -0.2791 0.9281 0.2466
vn -0.2765 0.9290 0.2458
vn -0.2764 0.9291 0.2459
vn -0.2817 0.9271 0.2474
vn -0.3474 -0.9370 0.0372
vn -0.0135 0.9923 0.1232
vn -0.0167 0.9918 0.1264
vn -0.0168 0.9918 0.1264
vn -0.0102 0.9927 0.1202
vn -0.7286 0.0791 0.6803
vn -0.7286 0.0792 0.6803
vn -0.4774 0.7565 0.4471
vn -0.4774 0.7565 0.4470
vn -0.4773 0.7565 0.4471
vn 0.9133 -0.2702 0.3047
vn 0.9134 -0.2702 0.3046
vn 0.6419 0.7143 0.2788
vn 0.3800 -0.8070 -0.4520
vn 0.3799 -0.8070 -0.4520
vn 0.3799 -0.8070 -0.4521
vn 0.7265 0.1254 -0.6756
vn 0.7265 0.1255 -0.6756
vn -0.7080 -0.6825 -0.1816
vn -0.7080 -0.6824 -0.1816
vn -0.7080 -0.6824 -0.1817
vn -0.8424 0.4991 -0.2030
vn -0.7265 0.1254 -0.6756
vn -0.7265 0.1255 -0.6756
vn -0.1868 -0.2947 -0.9371
vn -0.1869 -0.2947 -0.9371
vn -0.0267 -0.4733 -0.8805
vn -0.0308 -0.4733 -0.8804
vn 0.0267 -0.4733 -0.8805
vn 0.0303 -0.4733 -0.8804
vn 0.1868 -0.2947 -0.9371
vn -0.3800 -0.8070 -0.4520
vn -0.3799 -0.8070 -0.4520
vn -0.3799 -0.8070 -0.4521
vn -0.0698 -0.8193 -0.5691
vn -0.0699 -0.8193 -0.5691
vn 0.0014 -0.8290 -0.5592
vn 0.0022 -0.8268 -0.5626
vn 0.0007 -0.8267 -0.5626
vn -0.0003 -0.8301 -0.5576
vn -0.0032 -0.8267 -0.5626
vn -0.0016 -0.8313 -0.5559
vn 0.0698 -0.8193 -0.5691
vn 0.0699 -0.8193 -0.5691
vn 0.4774 0.7564 0.4471
vn 0.4774 0.7565 0.4470
vn 0.4773 0.7565 0.4471
vn 0.2232 0.7792 0.5857
vn 0.2233 0.7791 0.5858
vn 0.0326 0.8287 0.5587
vn 0.0240 0.8288 0.5591
vn 0.0241 0.8288 0.5591
vn -0.0326 0.8287 0.5587
vn -0.0240 0.8288 0.5591
vn -0.0241 0.8288 0.5591
vn -0.2233 0.7792 0.5857
vn -0.2232 0.7791 0.5858
vn -0.2232 0.7792 0.5857
vn 0.7286 0.0791 0.6803
vn 0.7286 0.0792 0.6803
vn 0.7286 0.0791 0.6804
vn 0.2877 -0.1180 0.9504
vn 0.2878 -0.1179 0.9504
vn 0.2877 -0.1179 0.9504
vn 0.0389 0.2170 0.9754
vn 0.0389 0.2171 0.9754
vn 0.0378 0.2170 0.9754
vn 0.0390 0.2170 0.9754
vn -0.0390 0.2170 0.9754
vn -0.2877 -0.1179 0.9504
vn -0.2877 -0.1180 0.9504
vn 0.0167 0.9918 0.1263
vn 0.0101 0.9927 0.1202
vn 0.0134 0.9923 0.1232
vn 0.0168 0.9919 0.1263
vn 0.0022 0.9934 0.1146
vn 0.0045 0.9933 0.1158
vn 0.0001 0.9936 0.1133
vn -0.0001 0.9936 0.1133
vn -0.0045 0.9933 0.1159
vn -0.0022 0.9934 0.1146
vn 0.3474 -0.9370 0.0372
vn 0.3474 -0.9370 0.0371
vn 0.2274 -0.9716 0.0654
vn 0.2273 -0.9716 0.0654
vn 0.2273 -0.9716 0.0653
vn 0.1296 -0.9880 0.0839
vn 0.1311 -0.9878 0.0842
vn 0.1281 -0.9882 0.0836
vn -0.1296 -0.9880 0.0839
vn -0.1311 -0.9878 0.0842
vn -0.1281 -0.9882 0.0836
vn -0.2274 -0.9716 0.0654
vn -0.2273 -0.9716 0.0653
vn 0.2765 0.9291 0.2458
vn 0.2764 0.9291 0.2459
vn 0.2804 0.9276 0.2470
vn 0.2817 0.9271 0.2473
vn 0.1096 0.9553 0.2745
vn 0.1046 0.9554 0.2761
vn 0.0044 0.9619 0.2734
vn 0.0044 0.9619 0.2735
vn 0.0014 0.9619 0.2734
vn -0.0001 0.9619 0.2734
vn -0.0043 0.9619 0.2734
vn -0.0044 0.9619 0.2734
vn -0.1046 0.9554 0.2761
vn -0.4102 0.8890 -0.2034
vn -0.4102 0.8890 -0.2035
vn -0.4101 0.8890 -0.2035
vn -0.2116 0.8826 -0.4198
vn -0.2117 0.8826 -0.4197
vn -0.2116 0.8826 -0.4197
vn -0.1009 0.8517 -0.5142
vn -0.1010 0.8517 -0.5142
vn 0.1009 0.8517 -0.5142
vn 0.1010 0.8517 -0.5142
vn 0.2117 0.8826 -0.4197
vn 0.2116 0.8826 -0.4197
vn 0.2116 0.8826 -0.4198
vn -0.2055 -0.9742 0.0928
vn -0.2056 -0.9742 0.0928
vn -0.1326 -0.9876 0.0844
vn 0.1326 -0.9876 0.0844
vn 0.2056 -0.9742 0.0928
vn 0.2055 -0.9742 0.0929
vn 0.2056 -0.9742 0.0929
vn 0.3274 -0.9375 0.1176
vn 0.0006 0.9960 0.0890
vn 0.0020 0.9959 0.0905
vn 0.0019 0.9959 0.0900
vn -0.0004 0.9960 0.0890
vn -0.0004 0.9960 0.0891
vn 0.0005 0.9960 0.0890
vn 0.0004 0.9960 0.0890
vn -0.0006 0.9960 0.0890
vn -0.0019 0.9959 0.0900
vn -0.0021 0.9958 0.0911
vn -0.0024 0.9957 0.0921
vn -0.0023 0.9957 0.0921
vn -0.6419 0.7143 0.2788
vn -0.9133 -0.2702 0.3047
vn -0.9134 -0.2702 0.3046
vn 0.8424 0.4991 -0.2030
vn 0.7080 -0.6825 -0.1816
vn 0.7080 -0.6824 -0.1817
vn 0.7080 -0.6825 -0.1817
vn 0.0023 0.9957 0.0921
vn 0.0024 0.9957 0.0921
vn -0.3274 -0.9375 0.1176
vn -0.3275 -0.9375 0.1176
vn 0.3976 0.9160 -0.0529
vn 0.3976 0.9160 -0.0530
vn -0.3402 0.9248 0.1704
vn -0.3402 0.9248 0.1705
vn -0.3714 0.9105 0.1817
vn -0.3714 0.9105 0.1818
vn 0.4229 0.9003 -0.1030
vn 0.4229 0.9003 -0.1031
vn 0.1559 0.8576 -0.4900
vn 0.1502 0.8578 -0.4916
vn 0.1502 0.8577 -0.4917
vn 0.0733 0.7882 -0.6110
vn 0.0666 0.7883 -0.6117
vn -0.0666 0.7883 -0.6117
vn -0.0666 0.7882 -0.6117
vn -0.0665 0.7883 -0.6117
vn -0.1502 0.8577 -0.4917
vn -0.1503 0.8577 -0.4916
vn -0.1502 0.8577 -0.4916
vn -0.1502 0.8578 -0.4916
vn -0.3605 0.8936 -0.2674
vn -0.3604 0.8936 -0.2674
vn -0.1296 0.9334 0.3345
vn -0.1297 0.9334 0.3345
vn -0.0106 0.9326 0.3608
vn -0.0105 0.9326 0.3608
vn 0.0106 0.9326 0.3608
vn 0.0105 0.9326 0.3608
vn 0.1296 0.9334 0.3345
vn 0.1297 0.9334 0.3345
vn 0.2843 0.9261 0.2481
vn -0.2844 0.9261 0.2481
vn -0.2843 0.9261 0.2481
vn 0.3714 0.9105 0.1818
vn 0.3713 0.9105 0.1818
vn 0.3714 0.9105 0.1817
vn 0.3605 0.8936 -0.2673
vn 0.3604 0.8936 -0.2674
vn 0.3605 0.8936 -0.2674
vn -0.4229 0.9003 -0.1031
vn -0.4229 0.9003 -0.1030
vn 0.9015 0.3778 -0.2111
vn 0.9015 0.3778 -0.2110
vn -0.8010 0.4948 0.3370
vn -0.8010 0.4948 0.3369
vn -0.2599 0.6271 0.7343
vn -0.2600 0.6271 0.7343
vn -0.2599 0.6270 0.7344
vn -0.0452 0.6052 0.7948
vn -0.0404 0.6052 0.7950
vn -0.0404 0.6053 0.7950
vn -0.0403 0.6053 0.7950
vn 0.0404 0.6053 0.7950
vn 0.2599 0.6270 0.7343
vn 0.2599 0.6271 0.7343
vn 0.5873 0.6099 0.5321
vn 0.5873 0.6098 0.5322
vn 0.5873 0.6098 0.5321
vn 0.1252 -0.4710 -0.8732
vn 0.1251 -0.4710 -0.8732
vn 0.0008 -0.5280 -0.8492
vn -0.0008 -0.5280 -0.8492
vn 0.0027 -0.5280 -0.8492
vn 0.0023 -0.5280 -0.8492
vn -0.0023 -0.5280 -0.8492
vn -0.1252 -0.4710 -0.8732
vn -0.6869 -0.0997 -0.7199
vn -0.6869 -0.0996 -0.7199
vn -0.9015 0.3778 -0.2110
vn -0.9015 0.3778 -0.2111
vn 0.6869 -0.0997 -0.7199
vn 0.6869 -0.0996 -0.7199
vn 0.8010 0.4948 0.3369
vn 0.8010 0.4948 0.3370
vn 0.8010 0.4949 0.3370
vn -0.5873 0.6098 0.5321
vn 0.4291 -0.8887 -0.1614
vn 0.4307 -0.8887 -0.1570
vn -0.6240 -0.7706 0.1294
vn -0.6240 -0.7707 0.1294
vn -0.6241 -0.7706 0.1294
vn -0.3302 0.0958 0.9390
vn -0.3302 0.0958 0.9391
vn 0.3296 0.0958 0.9392
vn 0.3302 0.0958 0.9391
vn 0.5574 -0.5902 0.5839
vn 0.5575 -0.5902 0.5838
vn 0.5574 -0.5903 0.5838
vn 0.5575 -0.5903 0.5838
vn 0.0697 -0.8654 -0.4962
vn 0.0698 -0.8654 -0.4962
vn 0.0697 -0.8654 -0.4963
vn -0.0000 -0.8335 -0.5525
vn -0.0000 -0.8335 -0.5526
vn -0.0001 -0.8335 -0.5525
vn -0.0697 -0.8654 -0.4963
vn -0.0698 -0.8654 -0.4962
vn -0.0697 -0.8654 -0.4962
vn -0.2843 -0.8925 -0.3502
vn -0.2844 -0.8925 -0.3502
vn -0.2844 -0.8925 -0.3501
vn -0.4291 -0.8887 -0.1614
vn -0.4290 -0.8887 -0.1614
vn 0.2843 -0.8925 -0.3502
vn 0.2844 -0.8925 -0.3502
vn 0.6240 -0.7707 0.1294
vn 0.6240 -0.7706 0.1294
vn 0.6240 -0.7706 0.1293
vn -0.5574 -0.5903 0.5838
vn -0.5575 -0.5903 0.5838
vn -0.5575 -0.5902 0.5839
vn -0.5575 -0.5902 0.5838
vt 0.583330 0.875000
vt 0.625000 0.875000
vt 0.625000 0.750000
vt 0.583330 0.750000
vt 0.583330 0.541670
vt 0.625000 0.541670
vt 0.625000 0.500000
vt 0.583330 0.500000
vt 0.583330 0.375000
vt 0.625000 0.375000
vt 0.625000 0.250000
vt 0.583330 0.250000
vt 0.583330 0.041670
vt 0.625000 0.041670
vt 0.625000 0.000000
vt 0.583330 0.000000
vt 0.333330 0.375000
vt 0.375000 0.375000
vt 0.375000 0.250000
vt 0.333330 0.250000
vt 0.833330 0.375000
vt 0.875000 0.375000
vt 0.875000 0.250000
vt 0.833330 0.250000
vt 0.416670 0.041670
vt 0.458330 0.041670
vt 0.458330 0.000000
vt 0.416670 0.000000
vt 0.500000 0.041670
vt 0.541670 0.041670
vt 0.541670 0.000000
vt 0.500000 0.000000
vt 0.416670 0.375000
vt 0.458330 0.375000
vt 0.458330 0.250000
vt 0.416670 0.250000
vt 0.500000 0.375000
vt 0.541670 0.375000
vt 0.541670 0.250000
vt 0.500000 0.250000
vt 0.416670 0.541670
vt 0.458330 0.541670
vt 0.458330 0.500000
vt 0.416670 0.500000
vt 0.500000 0.541670
vt 0.541670 0.541670
vt 0.541670 0.500000
vt 0.500000 0.500000
vt 0.416670 0.875000
vt 0.458330 0.875000
vt 0.458330 0.750000
vt 0.416670 0.750000
vt 0.500000 0.875000
vt 0.541670 0.875000
vt 0.541670 0.750000
vt 0.500000 0.750000
vt 0.541670 0.708330
vt 0.500000 0.708330
vt 0.541670 0.666670
vt 0.500000 0.666670
vt 0.541670 0.625000
vt 0.500000 0.625000
vt 0.541670 0.583330
vt 0.500000 0.583330
vt 0.458330 0.708330
vt 0.416670 0.708330
vt 0.458330 0.666670
vt 0.416670 0.666670
vt 0.458330 0.625000
vt 0.416670 0.625000
vt 0.458330 0.583330
vt 0.416670 0.583330
vt 0.541670 0.208330
vt 0.500000 0.208330
vt 0.541670 0.166670
vt 0.500000 0.166670
vt 0.541670 0.125000
vt 0.500000 0.125000
vt 0.541670 0.083330
vt 0.500000 0.083330
vt 0.458330 0.208330
vt 0.416670 0.208330
vt 0.458330 0.166670
vt 0.416670 0.166670
vt 0.375000 0.166670
vt 0.375000 0.125000
vt 0.458330 0.125000
vt 0.458330 0.083330
vt 0.416670 0.083330
vt 0.375000 0.083330
vt 0.666670 0.375000
vt 0.666670 0.250000
vt 0.708330 0.375000
vt 0.708330 0.250000
vt 0.750000 0.375000
vt 0.750000 0.250000
vt 0.791670 0.375000
vt 0.791670 0.250000
vt 0.125000 0.375000
vt 0.166670 0.375000
vt 0.166670 0.250000
vt 0.125000 0.250000
vt 0.208330 0.375000
vt 0.208330 0.250000
vt 0.250000 0.375000
vt 0.250000 0.250000
vt 0.291670 0.375000
vt 0.291670 0.250000
vt 0.625000 0.208330
vt 0.583330 0.208330
vt 0.625000 0.166670
vt 0.583330 0.166670
vt 0.625000 0.125000
vt 0.583330 0.125000
vt 0.625000 0.083330
vt 0.583330 0.083330
vt 0.625000 0.708330
vt 0.583330 0.708330
vt 0.625000 0.666670
vt 0.583330 0.666670
vt 0.625000 0.625000
vt 0.583330 0.625000
vt 0.625000 0.583330
vt 0.583330 0.583330
vt 0.291670 0.500000
vt 0.333330 0.500000
vt 0.250000 0.500000
vt 0.208330 0.500000
vt 0.166670 0.500000
vt 0.125000 0.500000
vt 0.791670 0.500000
vt 0.833330 0.500000
vt 0.750000 0.500000
vt 0.708330 0.500000
vt 0.666670 0.500000
vt 0.500000 1.000000
vt 0.541670 1.000000
vt 0.416670 1.000000
vt 0.458330 1.000000
vt 0.875000 0.500000
vt 0.375000 0.500000
vt 0.583330 1.000000
vt 0.625000 1.000000
vt 0.375000 1.000000
vt 0.375000 0.875000
vt 0.375000 0.041670
vt 0.375000 0.208330
vt 0.375000 0.583330
vt 0.375000 0.541670
vt 0.375000 0.625000
vt 0.375000 0.666670
vt 0.375000 0.708330
vt 0.375000 0.750000
vt 0.375000 0.000000
s 1
usemtl mat0
f 1/1/1 2/2/1 3/3/2
f 1/1/3 3/3/3 4/4/3
f 5/5/4 6/6/5 7/7/6
f 5/5/7 7/7/6 8/8/8
f 9/9/9 10/10/10 11/11/11
f 9/9/9 11/11/11 12/12/11
f 13/13/12 14/14/13 15/15/14
f 13/13/12 15/15/14 16/16/15
f 17/17/16 18/18/16 19/19/16
f 17/17/16 19/19/16 20/20/16
f 21/21/17 22/22/18 23/23/19
f 21/21/17 23/23/19 24/24/20
f 25/25/21 26/26/21 27/27/22
f 25/25/21 27/27/22 28/28/22
f 29/29/23 30/30/23 31/31/24
f 29/29/23 31/31/24 32/32/25
f 33/33/26 34/34/26 35/35/26
f 33/33/26 35/35/26 36/36/27
f 37/37/28 38/38/28 39/39/28
f 37/37/28 39/39/28 40/40/28
f 41/41/29 42/42/30 43/43/31
f 41/41/29 43/43/31 44/44/30
f 45/45/32 46/46/32 47/47/32
f 45/45/32 47/47/32 48/48/33
f 49/49/34 50/50/34 51/51/35
f 49/49/34 51/51/35 52/52/36
f 53/53/37 54/54/37 55/55/37
f 53/53/37 55/55/37 56/56/37
f 56/56/38 55/55/39 57/57/39
f 56/56/38 57/57/39 58/58/38
f 58/58/40 57/57/41 59/59/40
f 58/58/40 59/59/40 60/60/40
f 60/60/42 59/59/42 61/61/43
f 60/60/42 61/61/43 62/62/42
f 62/62/44 61/61/44 63/63/45
f 62/62/44 63/63/45 64/64/44
f 64/64/46 63/63/46 46/46/46
f 64/64/46 46/46/46 45/45/46
f 52/52/47 51/51/48 65/65/49
f 52/52/47 65/65/49 66/66/49
f 66/66/50 65/65/50 67/67/50
f 66/66/50 67/67/50 68/68/51
f 68/68/52 67/67/53 69/69/54
f 68/68/52 69/69/54 70/70/55
f 70/70/55 69/69/54 71/71/56
f 70/70/55 71/71/56 72/72/57
f 72/72/58 71/71/58 42/42/58
f 72/72/58 42/42/58 41/41/59
f 40/40/60 39/39/60 73/73/61
f 40/40/60 73/73/61 74/74/62
f 74/74/63 73/73/63 75/75/63
f 74/74/63 75/75/63 76/76/64
f 76/76/65 75/75/66 77/77/67
f 76/76/65 77/77/67 78/78/67
f 78/78/68 77/77/69 79/79/70
f 78/78/68 79/79/70 80/80/70
f 80/80/71 79/79/72 30/30/73
f 80/80/71 30/30/73 29/29/73
f 36/36/74 35/35/75 81/81/74
f 36/36/74 81/81/74 82/82/76
f 82/82/77 81/81/77 83/83/78
f 82/82/77 83/83/78 84/84/79
f 85/85/80 84/84/81 83/83/81
f 85/85/82 83/83/83 86/86/83
f 87/87/84 88/88/84 89/89/84
f 87/87/84 89/89/84 90/90/84
f 89/89/85 88/88/85 26/26/86
f 89/89/85 26/26/86 25/25/86
f 10/10/87 91/91/88 92/92/89
f 10/10/87 92/92/89 11/11/90
f 91/91/88 93/93/91 94/94/92
f 91/91/88 94/94/92 92/92/89
f 93/93/91 95/95/93 96/96/94
f 93/93/91 96/96/94 94/94/92
f 95/95/93 97/97/95 98/98/96
f 95/95/93 98/98/96 96/96/94
f 97/97/95 21/21/17 24/24/20
f 97/97/95 24/24/20 98/98/96
f 99/99/97 100/100/98 101/101/97
f 99/99/98 101/101/97 102/102/97
f 100/100/99 103/103/100 104/104/100
f 100/100/99 104/104/100 101/101/101
f 103/103/102 105/105/103 106/106/104
f 103/103/102 106/106/104 104/104/104
f 105/105/105 107/107/106 108/108/107
f 105/105/105 108/108/107 106/106/107
f 107/107/108 17/17/108 20/20/109
f 107/107/108 20/20/109 108/108/109
f 12/12/110 11/11/110 109/109/111
f 12/12/112 109/109/111 110/110/113
f 110/110/114 109/109/115 111/111/115
f 110/110/115 111/111/115 112/112/115
f 112/112/116 111/111/117 113/113/118
f 112/112/116 113/113/118 114/114/119
f 114/114/119 113/113/118 115/115/120
f 114/114/121 115/115/121 116/116/121
f 116/116/122 115/115/122 14/14/122
f 116/116/122 14/14/122 13/13/122
f 4/4/123 3/3/124 117/117/125
f 4/4/124 117/117/125 118/118/123
f 118/118/126 117/117/126 119/119/126
f 118/118/127 119/119/128 120/120/128
f 120/120/129 119/119/130 121/121/129
f 120/120/129 121/121/129 122/122/129
f 122/122/131 121/121/131 123/123/131
f 122/122/131 123/123/132 124/124/131
f 124/124/133 123/123/134 6/6/134
f 124/124/135 6/6/135 5/5/135
f 125/125/136 126/126/137 17/17/136
f 125/125/136 17/17/136 107/107/137
f 127/127/138 125/125/138 107/107/106
f 127/127/138 107/107/106 105/105/105
f 128/128/139 127/127/139 105/105/103
f 128/128/139 105/105/103 103/103/102
f 129/129/140 128/128/141 103/103/141
f 129/129/140 103/103/141 100/100/142
f 130/130/143 129/129/143 100/100/143
f 130/130/143 100/100/143 99/99/143
f 131/131/144 132/132/145 21/21/146
f 131/131/144 21/21/146 97/97/147
f 133/133/148 131/131/144 97/97/147
f 133/133/148 97/97/147 95/95/149
f 134/134/150 133/133/148 95/95/149
f 134/134/150 95/95/149 93/93/151
f 135/135/152 134/134/150 93/93/151
f 135/135/152 93/93/151 91/91/153
f 7/7/154 135/135/152 91/91/153
f 7/7/154 91/91/153 10/10/155
f 136/136/156 137/137/156 54/54/156
f 136/136/156 54/54/156 53/53/156
f 138/138/157 139/139/157 50/50/157
f 138/138/157 50/50/157 49/49/158
f 48/48/159 47/47/159 38/38/159
f 48/48/159 38/38/159 37/37/159
f 44/44/160 43/43/161 34/34/161
f 44/44/160 34/34/161 33/33/162
f 132/132/163 140/140/164 22/22/164
f 132/132/145 22/22/163 21/21/146
f 126/126/165 141/141/166 18/18/165
f 126/126/165 18/18/165 17/17/165
f 8/8/167 7/7/168 10/10/168
f 8/8/167 10/10/168 9/9/168
f 142/142/169 143/143/170 2/2/170
f 142/142/169 2/2/169 1/1/170
f 137/137/171 142/142/171 1/1/171
f 137/137/171 1/1/171 54/54/172
f 47/47/173 8/8/173 9/9/174
f 47/47/173 9/9/174 38/38/174
f 63/63/175 124/124/176 5/5/177
f 63/63/175 5/5/177 46/46/176
f 61/61/178 122/122/179 124/124/179
f 61/61/178 124/124/179 63/63/179
f 59/59/180 120/120/181 122/122/180
f 59/59/180 122/122/180 61/61/182
f 57/57/183 118/118/184 120/120/185
f 57/57/183 120/120/185 59/59/186
f 55/55/187 4/4/187 118/118/187
f 55/55/187 118/118/187 57/57/188
f 79/79/189 116/116/189 13/13/189
f 79/79/189 13/13/189 30/30/190
f 77/77/191 114/114/192 116/116/191
f 77/77/191 116/116/191 79/79/191
f 75/75/193 112/112/193 114/114/193
f 75/75/193 114/114/193 77/77/194
f 73/73/195 110/110/195 112/112/195
f 73/73/195 112/112/195 75/75/196
f 39/39/197 12/12/112 110/110/113
f 39/39/197 110/110/113 73/73/197
f 30/30/198 13/13/12 16/16/15
f 30/30/198 16/16/15 31/31/199
f 38/38/200 9/9/201 12/12/200
f 38/38/200 12/12/200 39/39/202
f 46/46/203 5/5/203 8/8/204
f 46/46/203 8/8/204 47/47/205
f 54/54/206 1/1/207 4/4/206
f 54/54/206 4/4/206 55/55/206
f 43/43/208 48/48/209 37/37/208
f 43/43/208 37/37/208 34/34/209
f 139/139/210 136/136/210 53/53/211
f 139/139/210 53/53/211 50/50/211
f 88/88/212 80/80/213 29/29/212
f 88/88/212 29/29/212 26/26/214
f 87/87/215 78/78/216 80/80/217
f 87/87/215 80/80/217 88/88/218
f 83/83/219 76/76/219 78/78/219
f 83/83/219 78/78/219 87/87/219
f 81/81/220 74/74/221 76/76/220
f 81/81/220 76/76/220 83/83/221
f 35/35/222 40/40/223 74/74/224
f 35/35/222 74/74/224 81/81/223
f 71/71/225 64/64/225 45/45/225
f 71/71/225 45/45/225 42/42/226
f 69/69/227 62/62/228 64/64/229
f 69/69/227 64/64/229 71/71/230
f 67/67/231 60/60/231 62/62/228
f 67/67/231 62/62/228 69/69/227
f 65/65/232 58/58/232 60/60/232
f 65/65/232 60/60/232 67/67/232
f 51/51/233 56/56/234 58/58/233
f 51/51/233 58/58/233 65/65/233
f 50/50/235 53/53/236 56/56/235
f 50/50/235 56/56/235 51/51/235
f 42/42/237 45/45/237 48/48/237
f 42/42/237 48/48/237 43/43/238
f 34/34/239 37/37/240 40/40/241
f 34/34/239 40/40/241 35/35/239
f 26/26/242 29/29/242 32/32/242
f 26/26/242 32/32/242 27/27/242
f 141/141/243 44/44/243 33/33/244
f 141/141/243 33/33/244 18/18/243
f 144/144/245 138/138/246 49/49/245
f 144/144/245 49/49/245 145/145/247
f 90/90/248 89/89/248 25/25/248
f 90/90/249 25/25/249 146/146/248
f 147/147/250 82/82/251 84/84/251
f 147/147/251 84/84/251 85/85/251
f 19/19/252 36/36/252 82/82/253
f 19/19/254 82/82/254 147/147/255
f 148/148/256 72/72/257 41/41/257
f 148/148/257 41/41/258 149/149/257
f 150/150/259 70/70/55 72/72/57
f 150/150/259 72/72/57 148/148/259
f 151/151/260 68/68/52 70/70/55
f 151/151/261 70/70/55 150/150/259
f 152/152/262 66/66/263 68/68/264
f 152/152/263 68/68/264 151/151/264
f 153/153/265 52/52/265 66/66/266
f 153/153/265 66/66/267 152/152/265
f 145/145/268 49/49/269 52/52/269
f 145/145/268 52/52/268 153/153/268
f 149/149/270 41/41/270 44/44/270
f 149/149/271 44/44/270 141/141/270
f 18/18/272 33/33/273 36/36/274
f 18/18/272 36/36/274 19/19/272
f 146/146/275 25/25/275 28/28/276
f 146/146/277 28/28/278 154/154/277
